<?xml version="1.0" encoding="UTF-8"?>
<svg version="1.1" xmlns="http://www.w3.org/2000/svg" width="224" height="225">
<path d="M0 0 C1.64742187 -0.0937793 1.64742187 -0.0937793 3.328125 -0.18945312 C11.27196609 -0.34852276 11.27196609 -0.34852276 13.99243164 2.18554688 C15.27632978 4.25706289 16.26764721 6.3345815 17.25 8.5625 C18.28447266 10.03589844 18.28447266 10.03589844 19.33984375 11.5390625 C19.94957031 12.41304687 20.55929688 13.28703125 21.1875 14.1875 C22.12916016 15.50621094 22.12916016 15.50621094 23.08984375 16.8515625 C24.25 19.5625 24.25 19.5625 23.51171875 22.75 C22.47732689 25.05576513 21.44809416 27.33746798 20.25 29.5625 C19.59 29.5625 18.93 29.5625 18.25 29.5625 C16.77952664 33.47313224 16.77952664 33.47313224 16.25 37.5625 C17.24 37.5625 18.23 37.5625 19.25 37.5625 C19.25 40.40217231 18.84732819 42.79985711 18.25 45.5625 C16.6 45.8925 14.95 46.2225 13.25 46.5625 C13.25 45.5725 13.25 44.5825 13.25 43.5625 C11.27 44.2225 9.29 44.8825 7.25 45.5625 C7.47558594 46.22894531 7.70117188 46.89539063 7.93359375 47.58203125 C9.1687636 52.15791955 9.83381105 55.22326773 7.89453125 59.671875 C5.5948157 63.25658624 3.26466551 66.54783449 0.25 69.5625 C-4.93962559 70.44103396 -9.60855242 70.55310351 -14.75 69.5625 C-19.16504025 65.88215541 -21.62319638 61.17031337 -22.75 55.5625 C-23.6575 56.036875 -24.565 56.51125 -25.5 57 C-28.01427949 58.20878821 -30.04568209 59.04243886 -32.75 59.5625 C-33.08 58.9025 -33.41 58.2425 -33.75 57.5625 C-35.64451639 57.48884073 -37.54166836 57.47901293 -39.4375 57.5 C-45.1260494 57.10908073 -45.1260494 57.10908073 -47.703125 54.8515625 C-49.27071329 52.50018007 -50.48688972 50.08872056 -51.75 47.5625 C-52.34941406 46.81742188 -52.94882813 46.07234375 -53.56640625 45.3046875 C-55.59166031 42.53229795 -56.45925962 41.01049918 -56.75 37.5625 C-54.29893524 30.87341178 -49.69851935 23.52817956 -43.75 19.5625 C-41.8125 18.96484375 -41.8125 18.96484375 -39.75 18.5 C-37.34494408 17.94884135 -35.09945224 17.34565075 -32.75 16.5625 C-31.96625 16.8925 -31.1825 17.2225 -30.375 17.5625 C-27.0867777 18.81515612 -26.02940511 18.87041523 -22.75 17.5625 C-20.6674585 15.09202657 -19.10499535 12.35922842 -17.5 9.5625 C-16.62041313 8.0829637 -15.7402357 6.60377827 -14.859375 5.125 C-14.47749023 4.46628906 -14.09560547 3.80757812 -13.70214844 3.12890625 C-10.99157468 -1.33033509 -4.71830871 0.11741162 0 0 Z M8.25 40.5625 C6.93 41.5525 5.61 42.5425 4.25 43.5625 C6.23 43.2325 8.21 42.9025 10.25 42.5625 C9.59 41.9025 8.93 41.2425 8.25 40.5625 Z M-31.75 55.5625 C-30.75 57.5625 -30.75 57.5625 -30.75 57.5625 Z " fill="#8CA557" transform="translate(192.75,43.4375)"/>
<path d="M0 0 C-0.66 0 -1.32 0 -2 0 C-2 0.66 -2 1.32 -2 2 C-1.01 1.67 -0.02 1.34 1 1 C1 0.34 1 -0.32 1 -1 C2.32 -0.34 3.64 0.32 5 1 C5 1.66 5 2.32 5 3 C5.61875 3.0825 6.2375 3.165 6.875 3.25 C9 4 9 4 10.1875 6 C10.455625 6.66 10.72375 7.32 11 8 C11.495 8.495 11.495 8.495 12 9 C12.49432386 14.19040052 11.19790854 17.42102388 9 22 C10.32 21.34 11.64 20.68 13 20 C13 23.27275026 12.70074844 25.846632 12 29 C10.35 29.33 8.7 29.66 7 30 C7 29.01 7 28.02 7 27 C5.02 27.66 3.04 28.32 1 29 C1.22558594 29.66644531 1.45117188 30.33289063 1.68359375 31.01953125 C2.9187636 35.59541955 3.58381105 38.66076773 1.64453125 43.109375 C-0.6551843 46.69408624 -2.98533449 49.98533449 -6 53 C-11.18948736 53.87851056 -15.85942562 53.99581807 -21 53 C-25.19219461 49.44674019 -27.28419314 45.14742058 -29 40 C-27.68 40 -26.36 40 -25 40 C-25.33 38.35 -25.66 36.7 -26 35 C-26.33 35.66 -26.66 36.32 -27 37 C-27.99 36.67 -28.98 36.34 -30 36 C-27.8164557 28.72151899 -27.8164557 28.72151899 -24.3125 25.625 C-20.51695492 23.76303449 -17.13236227 22.8549715 -13 22 C-13.6954344 18.99615946 -13.6954344 18.99615946 -15 16 C-17.02554603 15.26404798 -17.02554603 15.26404798 -19 15 C-19.35032978 11.6005036 -19.49044978 8.39050062 -19 5 C-14.5557392 0.32183073 -6.21047253 -2.07015751 0 0 Z M2 24 C0.68 24.99 -0.64 25.98 -2 27 C-0.02 26.67 1.96 26.34 4 26 C3.34 25.34 2.68 24.68 2 24 Z " fill="#CD8E51" transform="translate(199,60)"/>
<path d="M0 0 C2.75329021 1.79562405 4.52627461 3.05254922 6 6 C6.78000165 10.27228176 6.87816311 13.66738748 4.4375 17.37109375 C2.69577686 19.3410669 0.9190645 21.20332481 -1 23 C0.03125 23.515625 1.0625 24.03125 2.125 24.5625 C6.85205356 27.30073225 10.76929708 30.73340023 12.734375 35.94921875 C13.65684646 40.64459851 12.66623979 44.13406843 10.28515625 48.234375 C7.66987705 51.82740296 5.05363185 53.60719122 0.671875 54.4453125 C-5.16470419 54.85709569 -8.78935633 53.63929828 -13.23828125 49.8671875 C-16.04436235 46.89311485 -18.0969969 43.60472703 -20 40 C-20.99 42.475 -20.99 42.475 -22 45 C-31.08751334 42.86686233 -31.08751334 42.86686233 -34.5 39.625 C-37.48503806 34.4011834 -38.76546833 30.08786533 -38 24 C-36.29405367 19.33109425 -34.16993297 16.71045643 -30 14 C-29.01 14 -28.02 14 -27 14 C-26.67 11.69 -26.34 9.38 -26 7 C-26.66 8.32 -27.32 9.64 -28 11 C-28.99 10.34 -29.98 9.68 -31 9 C-30.34 7.68 -29.68 6.36 -29 5 C-27.125 5.25 -27.125 5.25 -25 6 C-23.75 8.0625 -23.75 8.0625 -23 10 C-22.38125 9.649375 -21.7625 9.29875 -21.125 8.9375 C-20.42375 8.628125 -19.7225 8.31875 -19 8 C-18.34 8.33 -17.68 8.66 -17 9 C-16.773125 8.4225 -16.54625 7.845 -16.3125 7.25 C-12.59136308 0.87090814 -6.99566288 -0.60307439 0 0 Z M-12 10 C-14.54634497 14.17501366 -16 17.03318143 -16 22 C-9.10229112 20.83505361 -4.08186209 19.08186209 1 14 C1.41666667 10.5 1.41666667 10.5 1 7 C-4.84198251 3.10534499 -7.76655576 4.78960708 -12 10 Z M-25 11 C-24 14 -24 14 -24 14 Z M-22 11 C-21.67 12.65 -21.34 14.3 -21 16 C-20.67 15.34 -20.34 14.68 -20 14 C-20.66 13.01 -21.32 12.02 -22 11 Z M-15 28 C-15.65880025 35.11504268 -13.94210423 40.03797459 -10 46 C-7.04809979 48.64117387 -5.41976931 48.94003296 -1.5 49.5 C2.09925515 49.24786584 2.09925515 49.24786584 4.9375 47 C7.09465207 43.86232426 7.74729749 41.81432894 7.48046875 37.9921875 C6.60402838 34.35816646 4.70797482 32.47750888 2 30 C-3.11875527 27.10259136 -9.39971097 25.19985549 -15 28 Z " fill="#26A8B4" transform="translate(39,104)"/>
<path d="M0 0 C1.64742187 -0.0937793 1.64742187 -0.0937793 3.328125 -0.18945312 C11.27196609 -0.34852276 11.27196609 -0.34852276 13.99243164 2.18554688 C15.27632978 4.25706289 16.26764721 6.3345815 17.25 8.5625 C17.93964844 9.54476562 18.62929687 10.52703125 19.33984375 11.5390625 C19.94957031 12.41304687 20.55929688 13.28703125 21.1875 14.1875 C21.81527344 15.06664062 22.44304687 15.94578125 23.08984375 16.8515625 C24.25 19.5625 24.25 19.5625 23.51171875 22.75 C22.47732689 25.05576513 21.44809416 27.33746798 20.25 29.5625 C19.59 29.5625 18.93 29.5625 18.25 29.5625 C17.59 27.9125 16.93 26.2625 16.25 24.5625 C15.59 24.5625 14.93 24.5625 14.25 24.5625 C14.25 23.2425 14.25 21.9225 14.25 20.5625 C13.26 20.2325 12.27 19.9025 11.25 19.5625 C10.59 18.9025 9.93 18.2425 9.25 17.5625 C8.92 18.2225 8.59 18.8825 8.25 19.5625 C6.3125 19.1875 6.3125 19.1875 4.25 18.5625 C3.755 17.5725 3.755 17.5725 3.25 16.5625 C-4.97793434 17.54146894 -4.97793434 17.54146894 -11.75 21.5625 C-12.1586033 24.93483922 -12.03527062 28.18362795 -11.75 31.5625 C-10.43 31.5625 -9.11 31.5625 -7.75 31.5625 C-7.09 34.2025 -6.43 36.8425 -5.75 39.5625 C-8.06 39.5625 -10.37 39.5625 -12.75 39.5625 C-12.75 37.9125 -12.75 36.2625 -12.75 34.5625 C-13.41 34.2325 -14.07 33.9025 -14.75 33.5625 C-14.42 34.8825 -14.09 36.2025 -13.75 37.5625 C-15.5625 37.375 -15.5625 37.375 -17.75 36.5625 C-19.5 34 -19.5 34 -20.75 31.5625 C-21.41 32.2225 -22.07 32.8825 -22.75 33.5625 C-22.42 30.9225 -22.09 28.2825 -21.75 25.5625 C-25.215 23.5825 -25.215 23.5825 -28.75 21.5625 C-28.42 20.9025 -28.09 20.2425 -27.75 19.5625 C-27.01265625 19.35753906 -26.2753125 19.15257813 -25.515625 18.94140625 C-21.3456385 16.86230281 -19.78953099 13.44498529 -17.5 9.5 C-16.62050772 8.02951941 -15.74033513 6.55944543 -14.859375 5.08984375 C-14.47749023 4.43749756 -14.09560547 3.78515137 -13.70214844 3.11303711 C-10.97740115 -1.32410906 -4.71268593 0.1172717 0 0 Z " fill="#05AEED" transform="translate(192.75,43.4375)"/>
<path d="M0 0 C4.87342322 2.43671161 7.12285752 4.89000101 9 10 C9.375 12.6875 9.375 12.6875 9 15 C5.80510871 18.95183476 1.83301732 19.35903581 -3 20 C-6.34217607 20.14389925 -9.65767383 20.1255989 -13 20 C-11.48320301 24.9989174 -11.48320301 24.9989174 -7.6875 28.1875 C-3.99800544 27.9300934 -2.01630063 26.0536515 1 24 C3.375 24.25 3.375 24.25 5 25 C4.5047783 28.66464055 3.9791794 30.70832354 1 33 C-3.98110273 34.66036758 -8.95916279 34.79858847 -13.875 32.875 C-17.32911645 29.82725019 -18.7437821 27.04349397 -19.3203125 22.4453125 C-19.58307031 16.12160794 -18.82630527 11.14451409 -15 6 C-10.28851949 1.18034774 -6.79031372 -0.56585948 0 0 Z M-9.875 8.875 C-12.18743667 11.64579981 -12.18743667 11.64579981 -12 14 C-10.22925083 14.02705729 -8.45838289 14.04642195 -6.6875 14.0625 C-5.70136719 14.07410156 -4.71523437 14.08570313 -3.69921875 14.09765625 C-0.90036151 14.12329862 -0.90036151 14.12329862 2 13 C1.65772428 10.02934491 1.65772428 10.02934491 1 7 C-3.38780268 4.80609866 -6.72161051 5.18256957 -9.875 8.875 Z " fill="#27ABDA" transform="translate(119,116)"/>
<path d="M0 0 C1.32 0.66 2.64 1.32 4 2 C3.67 5.63 3.34 9.26 3 13 C3.95261719 12.4946875 4.90523437 11.989375 5.88671875 11.46875 C7.15337004 10.81196785 8.42031265 10.1557473 9.6875 9.5 C10.31333984 9.16613281 10.93917969 8.83226563 11.58398438 8.48828125 C15.20481317 6.6304738 17.91404255 5.56249786 22 6 C21.84765625 8.29296875 21.84765625 8.29296875 21 11 C18.49609375 12.80078125 18.49609375 12.80078125 15.4375 14.3125 C14.42558594 14.82425781 13.41367188 15.33601563 12.37109375 15.86328125 C11.58863281 16.23839844 10.80617187 16.61351563 10 17 C10.54269531 17.59167969 11.08539063 18.18335938 11.64453125 18.79296875 C12.35996094 19.58316406 13.07539063 20.37335938 13.8125 21.1875 C14.52019531 21.96480469 15.22789062 22.74210937 15.95703125 23.54296875 C19.36926706 27.64678582 21.46673299 30.55478184 21 36 C19.02 36.495 19.02 36.495 17 37 C16.32453125 36.03578125 15.6490625 35.0715625 14.953125 34.078125 C14.05228781 32.80193898 13.15123472 31.52590533 12.25 30.25 C11.8065625 29.61578125 11.363125 28.9815625 10.90625 28.328125 C10.46796875 27.709375 10.0296875 27.090625 9.578125 26.453125 C9.18012695 25.88754883 8.78212891 25.32197266 8.37207031 24.73925781 C6.74910682 22.68196387 4.85289893 20.85289893 3 19 C2.67 24.94 2.34 30.88 2 37 C-0.475 37.495 -0.475 37.495 -3 38 C-5.09173338 33.81653325 -4.22688595 28.39044455 -4.24023438 23.78857422 C-4.24989756 21.77138359 -4.2809003 19.75523084 -4.3125 17.73828125 C-4.31765625 16.45824219 -4.3228125 15.17820312 -4.328125 13.859375 C-4.3374707 12.68858398 -4.34681641 11.51779297 -4.35644531 10.31152344 C-3.93862166 6.42977003 -2.83669157 2.83669157 0 0 Z " fill="#77B051" transform="translate(136,111)"/>
<path d="M0 0 C-0.66 0 -1.32 0 -2 0 C-2 0.66 -2 1.32 -2 2 C-1.01 1.67 -0.02 1.34 1 1 C1 0.34 1 -0.32 1 -1 C2.32 -0.34 3.64 0.32 5 1 C5 1.66 5 2.32 5 3 C5.61875 3.0825 6.2375 3.165 6.875 3.25 C9 4 9 4 10.1875 6 C10.455625 6.66 10.72375 7.32 11 8 C11.33 8.33 11.66 8.66 12 9 C12.49432386 14.19040052 11.19790854 17.42102388 9 22 C10.32 21.34 11.64 20.68 13 20 C13 23.27275026 12.70074844 25.846632 12 29 C10.35 29.33 8.7 29.66 7 30 C7 29.01 7 28.02 7 27 C5.02 27.66 3.04 28.32 1 29 C1.33 30.65 1.66 32.3 2 34 C1.34 34 0.68 34 0 34 C0 33.34 0 32.68 0 32 C-0.99 32 -1.98 32 -3 32 C-3 33.65 -3 35.3 -3 37 C-3.33 37 -3.66 37 -4 37 C-4 33.7 -4 30.4 -4 27 C-5.98 27 -7.96 27 -10 27 C-10.33 27.66 -10.66 28.32 -11 29 C-12.9375 28.6875 -12.9375 28.6875 -15 28 C-15.33 27.01 -15.66 26.02 -16 25 C-15.21625 25.020625 -14.4325 25.04125 -13.625 25.0625 C-11.01885039 25.18684063 -11.01885039 25.18684063 -9 24 C-7.906875 24.04125 -6.81375 24.0825 -5.6875 24.125 C-1.62964575 23.98744562 0.11849378 23.88150622 3 21 C3.79038879 17.83844485 3.79864477 15.16035143 3 12 C-0.30258173 8.69741827 -2.22230196 8.05017407 -6.875 7.75 C-8.421875 7.87375 -8.421875 7.87375 -10 8 C-10 8.66 -10 9.32 -10 10 C-10.66 10 -11.32 10 -12 10 C-12.061875 10.61875 -12.12375 11.2375 -12.1875 11.875 C-13 14 -13 14 -15.5625 15.25 C-16.366875 15.4975 -17.17125 15.745 -18 16 C-19.65236085 14.34763915 -19.32780449 12.45786456 -19.4375 10.1875 C-19.36207917 5.38113596 -19.36207917 5.38113596 -16.625 2.5 C-11.3026111 0.29763218 -5.62823295 -1.87607765 0 0 Z M2 24 C0.68 24.99 -0.64 25.98 -2 27 C-0.02 26.67 1.96 26.34 4 26 C3.34 25.34 2.68 24.68 2 24 Z " fill="#8D7A65" transform="translate(199,60)"/>
<path d="M0 0 C1.32 0.33 2.64 0.66 4 1 C4.33 2.32 4.66 3.64 5 5 C5.845625 4.484375 6.69125 3.96875 7.5625 3.4375 C11.74217118 1.6896375 13.6841163 1.66599958 18 3 C21.69348173 6.1807619 23.81985913 9.69281118 24.203125 14.6015625 C24.40543288 27.65042074 24.40543288 27.65042074 21 33 C18.953125 33.80078125 18.953125 33.80078125 17 34 C16.505 33.505 16.505 33.505 16 33 C16.23899884 30.91729583 16.48051968 28.83485184 16.734375 26.75390625 C17.88333779 17.44466551 17.88333779 17.44466551 15 9 C11.92760514 8.60777938 9.89962336 8.47263458 7.1875 10.0625 C3.49905992 16.08048118 5.30502485 24.12361007 5.94140625 30.76953125 C5.96074219 31.83558594 5.98007813 32.90164062 6 34 C5.34 34.66 4.68 35.32 4 36 C1.875 35.625 1.875 35.625 0 35 C-0.33947025 31.50056733 -0.67044773 28.00037948 -1 24.5 C-1.09539062 23.51773438 -1.19078125 22.53546875 -1.2890625 21.5234375 C-2.77914326 5.55828652 -2.77914326 5.55828652 0 0 Z " fill="#C73237" transform="translate(72,116)"/>
<path d="M0 0 C2.38134055 2.64074584 2.14859608 4.74946159 2.04296875 8.19775391 C2.00171875 8.99487793 1.96046875 9.79200195 1.91796875 10.61328125 C1.73181597 17.10148143 1.9326653 22.70975711 3.79296875 28.98828125 C1.98046875 29.61328125 1.98046875 29.61328125 -0.20703125 29.98828125 C-1.19703125 29.32828125 -2.18703125 28.66828125 -3.20703125 27.98828125 C-4.32078125 28.45234375 -4.32078125 28.45234375 -5.45703125 28.92578125 C-9.14896419 30.35220989 -11.39339957 29.94168917 -15.20703125 28.98828125 C-18.34510049 27.38437919 -19.79115139 26.1071961 -21.02734375 22.78125 C-22.38320126 17.19477381 -22.70723544 12.26163768 -20.20703125 6.98828125 C-17.87128422 3.43205379 -15.40034127 0.72262588 -11.76953125 -1.51171875 C-7.5304637 -2.33885388 -3.91849621 -1.7962664 0 0 Z M-11.89453125 5.98828125 C-14.53655061 9.41576583 -15.54393688 11.71500644 -16.20703125 15.98828125 C-15.48143152 20.34654395 -15.48143152 20.34654395 -13.20703125 23.98828125 C-9.17542934 24.25121181 -7.64810391 24.28232969 -4.20703125 21.98828125 C-3.98617485 19.03763977 -3.92642136 16.30459894 -4.01953125 13.36328125 C-4.03306641 12.56148437 -4.04660156 11.7596875 -4.06054688 10.93359375 C-4.09594074 8.95153747 -4.14974891 6.96982574 -4.20703125 4.98828125 C-8.29015659 3.77168443 -8.29015659 3.77168443 -11.89453125 5.98828125 Z " fill="#E46CA2" transform="translate(181.20703125,119.01171875)"/>
<path d="M0 0 C0.66 0.33 1.32 0.66 2 1 C3.6301763 7.8700287 3.6301763 7.8700287 1.1875 12.25 C0.465625 13.1575 -0.25625 14.065 -1 15 C-1.69429379 16.3191582 -2.37530495 17.64649406 -3 19 C-2.236875 19.4125 -1.47375 19.825 -0.6875 20.25 C1.95787162 21.97256756 3.36476551 23.33198584 5 26 C5 26.66 5 27.32 5 28 C4.34 28 3.68 28 3 28 C3 27.34 3 26.68 3 26 C-4.28226286 23.45967575 -9.41049034 22.92523284 -17 24 C-15.82179762 32.46524366 -15.82179762 32.46524366 -12 40 C-12 40.66 -12 41.32 -12 42 C-7.86589566 44.00441422 -4.57504719 44.40848636 0 44 C3.72803465 42.25271222 3.72803465 42.25271222 6 39 C6.06950541 37.45976004 6.08452357 35.91665012 6.0625 34.375 C6.05347656 33.55773437 6.04445313 32.74046875 6.03515625 31.8984375 C6.02355469 31.27195313 6.01195313 30.64546875 6 30 C6.66 30 7.32 30 8 30 C9.00054234 35.33622583 9.22328396 39.66997704 8 45 C4.35931289 48.64068711 1.45429904 50.17803116 -3.625 50.4375 C-8.69060495 50.37893809 -11.50522919 49.0504134 -15.30859375 45.76953125 C-20.06403501 40.79443913 -21.64874997 35.79083395 -22 29 C-21.67 28.67 -21.34 28.34 -21 28 C-20.76807135 26.48530552 -20.58784762 24.96245438 -20.4375 23.4375 C-20.35371094 22.61121094 -20.26992188 21.78492188 -20.18359375 20.93359375 C-20.12300781 20.29550781 -20.06242187 19.65742187 -20 19 C-19.360625 18.896875 -18.72125 18.79375 -18.0625 18.6875 C-14.62678812 17.91621774 -11.39928103 16.80281525 -8.0859375 15.62109375 C-6 15 -6 15 -3 15 C-0.87431809 11.45719682 -0.37142246 8.08564707 0 4 C-0.33 3.01 -0.66 2.02 -1 1 C-0.67 0.67 -0.34 0.34 0 0 Z " fill="#25B0BF" transform="translate(41,108)"/>
<path d="M0 0 C2.4375 1.25 2.4375 1.25 4 3 C4.25 5.6875 4.25 5.6875 4 8 C2.1875 8.6875 2.1875 8.6875 0 9 C-0.680625 8.2884375 -0.680625 8.2884375 -1.375 7.5625 C-3.0085302 5.65321269 -3.0085302 5.65321269 -6.1875 5.8125 C-7.115625 5.874375 -8.04375 5.93625 -9 6 C-9 9.93338385 -8.91817986 12.01058205 -6.1875 14.953125 C-4.75392246 16.17166591 -3.29579847 17.3620287 -1.8125 18.51953125 C0 20 0 20 1 22 C1.39447548 26.18144011 1.45035186 28.30946048 -0.875 31.875 C-3.80038857 34.80038857 -4.57340563 34.96503325 -8.8125 35.3125 C-12.00679583 35.26603752 -13.04284592 34.97538639 -15.9375 33.3125 C-18.21162756 30.76272061 -18.82194873 29.38297413 -19 26 C-18.67 25.34 -18.34 24.68 -18 24 C-16.35 24.33 -14.7 24.66 -13 25 C-12.67 26.32 -12.34 27.64 -12 29 C-10.02 28.67 -8.04 28.34 -6 28 C-6.04452419 25.67108098 -6.04452419 25.67108098 -7 23 C-8.48405874 21.77403843 -9.97094914 20.55060465 -11.4921875 19.37109375 C-14.19182939 16.91623804 -15.05923079 14.46908646 -16 11 C-15.75376809 6.94836579 -14.95883569 3.95883569 -12.0625 1.0625 C-7.65132285 -1.20992459 -4.80880359 -1.0123797 0 0 Z " fill="#E86D46" transform="translate(205,117)"/>
<path d="M0 0 C-1.05897342 3.36946087 -1.79531129 4.83917316 -4.625 7.0625 C-8.30853544 11.61845173 -7.4051204 16.35532245 -7 22 C-5.35 22 -3.7 22 -2 22 C-1.67 23.32 -1.34 24.64 -1 26 C-1.66 26 -2.32 26 -3 26 C-2.34 26.33 -1.68 26.66 -1 27 C-0.67 27.99 -0.34 28.98 0 30 C0.66 30 1.32 30 2 30 C1.67 29.01 1.34 28.02 1 27 C2.98 26.67 4.96 26.34 7 26 C7.36237263 27.62318979 7.71465157 29.2486358 8.0625 30.875 C8.35833984 32.23238281 8.35833984 32.23238281 8.66015625 33.6171875 C9 36 9 36 8 38 C-4.27303295 38.42030935 -4.27303295 38.42030935 -8.08984375 35.28125 C-9.64768469 32.93415808 -10.79713394 30.54497063 -12 28 C-12.59683594 27.25492188 -13.19367188 26.50984375 -13.80859375 25.7421875 C-15.84270283 22.97053772 -16.70889498 21.45232357 -17 18 C-14.26113534 10.52549028 -8.61467963 0 0 0 Z " fill="#9EC95B" transform="translate(153,63)"/>
<path d="M0 0 C0 3 0 3 -1 5 C-1.07033769 6.87379605 -1.0843022 8.75001102 -1.0625 10.625 C-1.04896484 12.12933594 -1.04896484 12.12933594 -1.03515625 13.6640625 C-1.02355469 14.43492188 -1.01195312 15.20578125 -1 16 C-1.66 16 -2.32 16 -3 16 C-2.67 17.65 -2.34 19.3 -2 21 C0.31 21 2.62 21 5 21 C5 19.35 5 17.7 5 16 C5.99 15.67 6.98 15.34 8 15 C8.66 14.01 9.32 13.02 10 12 C10.99 12 11.98 12 13 12 C13 13.98 13 15.96 13 18 C13.99 18 14.98 18 16 18 C16 17.34 16 16.68 16 16 C15.34 16 14.68 16 14 16 C14.33 15.01 14.66 14.02 15 13 C15.99 12.67 16.98 12.34 18 12 C18.33 10.35 18.66 8.7 19 7 C19.99 7 20.98 7 22 7 C22 7.66 22 8.32 22 9 C22.66 9 23.32 9 24 9 C24.98047884 12.66189887 25.26554522 14.43086583 23.63671875 17.921875 C22.67185547 19.32179688 22.67185547 19.32179688 21.6875 20.75 C21.05199219 21.69359375 20.41648438 22.6371875 19.76171875 23.609375 C16.60113684 27.8982356 16.60113684 27.8982356 12.76953125 28.546875 C2.28046304 29.08530693 2.28046304 29.08530693 -1.51171875 25.87109375 C-3.94548677 22.36585553 -5.65192358 19.04422926 -7 15 C-5.68 15 -4.36 15 -3 15 C-3.33 13.35 -3.66 11.7 -4 10 C-4.33 10.66 -4.66 11.32 -5 12 C-5.99 11.67 -6.98 11.34 -8 11 C-5.66153846 3.49230769 -5.66153846 3.49230769 -2.3125 1 C-1.1678125 0.505 -1.1678125 0.505 0 0 Z " fill="#F2A560" transform="translate(177,85)"/>
<path d="M0 0 C3.5 1.0625 3.5 1.0625 4.62109375 2.6953125 C5.4375 4.625 5.4375 4.625 6.5 8.0625 C6.83 8.0625 7.16 8.0625 7.5 8.0625 C7.96444522 12.7998412 8.16529126 16.01091058 5.5625 20.125 C1.53294265 22.67431179 -1.83511124 22.89239594 -6.5 22.0625 C-7.49 21.4025 -8.48 20.7425 -9.5 20.0625 C-9.29375 19.27875 -9.0875 18.495 -8.875 17.6875 C-8.75125 16.82125 -8.6275 15.955 -8.5 15.0625 C-9.16 14.4025 -9.82 13.7425 -10.5 13.0625 C-11.00891282 9.24565386 -10.82800073 7.56015628 -8.6875 4.3125 C-5.71486988 1.25493759 -4.33891771 0.07748067 0 0 Z " fill="#6B5F35" transform="translate(13.5,118.9375)"/>
<path d="M0 0 C3.42982121 2.65031639 4.80254181 4.30889635 6 8.5 C6 12.4426352 5.49535546 13.9883641 3 17 C0.35057347 19.15879198 -1.78316283 19.09478727 -5.0625 18.8125 C-7.58634533 18.4137512 -8.82952331 18.12098346 -10.9375 16.625 C-13.38223584 12.88599225 -13.52279017 9.33169001 -13 5 C-9.32712751 0.56995073 -5.57892715 -1.81639489 0 0 Z " fill="#D8BFB4" transform="translate(163,65)"/>
<path d="M0 0 C0.9075 0.350625 1.815 0.70125 2.75 1.0625 C5 3 5 3 5.52734375 5.0546875 C5.69581061 7.56114566 5.61171367 9.56194696 5 12 C2.44479065 14.61908959 0.65469385 15.84150442 -3.0390625 16.1953125 C-5.02709402 16.18786669 -7.01427778 16.09608333 -9 16 C-10.33981486 16.3062434 -11.67511887 16.63451555 -13 17 C-14.66623639 17.03786901 -16.33397597 17.04627845 -18 17 C-17.505 15.515 -17.505 15.515 -17 14 C-15.35 13.67 -13.7 13.34 -12 13 C-13.26974972 8.58477891 -13.26974972 8.58477891 -16 5 C-15.360625 4.896875 -14.72125 4.79375 -14.0625 4.6875 C-13.381875 4.460625 -12.70125 4.23375 -12 4 C-11.67 3.01 -11.34 2.02 -11 1 C-10.34 1 -9.68 1 -9 1 C-9 0.34 -9 -0.32 -9 -1 C-5.15705342 -2.06748516 -3.38663998 -2.11664999 0 0 Z " fill="#FAD4C5" transform="translate(198,69)"/>
<path d="M0 0 C1.32 0.33 2.64 0.66 4 1 C3.34 3.31 2.68 5.62 2 8 C2.66 8 3.32 8 4 8 C4.33 10.64 4.66 13.28 5 16 C3.02 16.99 3.02 16.99 1 18 C1 21.3 1 24.6 1 28 C2.32 28 3.64 28 5 28 C5.66 30.64 6.32 33.28 7 36 C4.69 36 2.38 36 0 36 C0 34.35 0 32.7 0 31 C-0.99 30.67 -1.98 30.34 -3 30 C-6.7550942 24.80913449 -9.02433764 19.48450265 -8 13 C-5.72434353 8.35622247 -3.00692422 4.19785044 0 0 Z " fill="#04ADEE" transform="translate(180,47)"/>
<path d="M0 0 C2.3125 1.6875 2.3125 1.6875 4 4 C4.4375 7.125 4.4375 7.125 4 10 C0.99559979 12.00293347 -0.70993945 12.49271626 -4.1875 13.125 C-5.08855469 13.29257813 -5.98960938 13.46015625 -6.91796875 13.6328125 C-7.60503906 13.75398438 -8.29210937 13.87515625 -9 14 C-8.01 15.485 -8.01 15.485 -7 17 C-3.97580475 16.41196203 -0.98241547 15.77321882 2 15 C1.52 19.56 1.52 19.56 -0.625 21.375 C-4.03554464 22.27251175 -6.59211681 21.80549966 -10 21 C-12.05938216 19.42114034 -12.84571211 18.30857577 -14 16 C-14.46646764 9.93592074 -13.39891701 5.89869139 -9.5 1.1875 C-6.27410935 -1.3663301 -3.73340217 -1.18376166 0 0 Z M-6.125 3.6875 C-8.4704469 5.02400873 -8.4704469 5.02400873 -9 9 C-4.545 8.505 -4.545 8.505 0 8 C-0.33 6.68 -0.66 5.36 -1 4 C-3.85168354 2.72005152 -3.85168354 2.72005152 -6.125 3.6875 Z " fill="#1689C2" transform="translate(36,77)"/>
<path d="M0 0 C0.99 0.33 1.98 0.66 3 1 C3 2.65 3 4.3 3 6 C4.3303125 5.62875 4.3303125 5.62875 5.6875 5.25 C9 5 9 5 11.8125 6.8125 C15.31789632 10.31789632 15.16015267 12.50717507 15.1875 17.375 C15.20167969 18.51710938 15.21585938 19.65921875 15.23046875 20.8359375 C15.01170034 23.83936816 14.57080637 25.47925934 13 28 C11.68 27.67 10.36 27.34 9 27 C9.16371094 26.30519531 9.32742187 25.61039063 9.49609375 24.89453125 C10.04095996 21.7647184 10.09738483 18.86201917 10.0625 15.6875 C10.05347656 14.61886719 10.04445313 13.55023438 10.03515625 12.44921875 C10.02355469 11.64097656 10.01195313 10.83273438 10 10 C7.69 10.33 5.38 10.66 3 11 C2.67 16.94 2.34 22.88 2 29 C1.01 29 0.02 29 -1 29 C-3.45513894 26.54486106 -2.18550613 20.04785925 -2.1875 16.75 C-2.19974609 15.69941406 -2.21199219 14.64882812 -2.22460938 13.56640625 C-2.22654297 12.54933594 -2.22847656 11.53226563 -2.23046875 10.484375 C-2.23457764 9.55334961 -2.23868652 8.62232422 -2.24291992 7.66308594 C-1.98028495 4.78386754 -1.19623423 2.61826249 0 0 Z " fill="#248BBD" transform="translate(116,72)"/>
<path d="M0 0 C1.35385826 0.62393112 2.69250208 1.28398924 4 2 C3.98839844 2.78503906 3.97679688 3.57007812 3.96484375 4.37890625 C3.91624493 10.03719775 3.98705251 15.42878878 5 21 C4.21625 20.814375 3.4325 20.62875 2.625 20.4375 C0.02910225 19.74037734 0.02910225 19.74037734 -2 21 C-5.93429172 21.52457223 -7.54458957 21.30690703 -10.875 19.0625 C-13.35451688 15.48907861 -13.72766863 13.48432847 -13.5 9.22265625 C-12.65103077 5.44872271 -10.77779315 3.64551728 -8 1 C-5.2201184 -0.3899408 -3.0813674 -0.18488204 0 0 Z M-6.75 6.0625 C-9.40080433 8.8800934 -9.40080433 8.8800934 -8.875 12.75 C-8.33537851 15.83094297 -8.33537851 15.83094297 -7 17 C-4.5 17.16666667 -4.5 17.16666667 -2 17 C-0.68737429 15.91447634 -0.68737429 15.91447634 -0.90234375 13.27734375 C-0.91394531 12.17519531 -0.92554687 11.07304688 -0.9375 9.9375 C-0.94652344 8.83277344 -0.95554687 7.72804688 -0.96484375 6.58984375 C-0.97644531 5.73519531 -0.98804687 4.88054687 -1 4 C-4.17291667 3.7 -4.17291667 3.7 -6.75 6.0625 Z " fill="#1789C0" transform="translate(106,77)"/>
<path d="M0 0 C2.3181362 1.89111111 3.66914015 3.33828031 5 6 C5.68128376 12.81283762 5.68128376 12.81283762 3.953125 15.82421875 C0.80302333 19.65066578 -0.90963023 20.8748756 -5.8125 21.4375 C-9.44774681 21.37128421 -9.96837796 21.02569291 -13 18.5625 C-15.31442273 15.23256526 -15.71909151 12.18794473 -15.49609375 8.1875 C-14.63728553 4.40062909 -12.82558616 2.62845224 -10 0 C-6.19426871 -1.2685771 -3.89430952 -0.88817586 0 0 Z M-9.3125 4.4375 C-11.58750808 7.89214189 -11.04929898 10.097564 -10.45703125 14.07421875 C-10.17883348 15.99607325 -10.17883348 15.99607325 -9 17 C-4.96839809 17.26293056 -3.44107266 17.29404844 0 15 C0.72037895 12.02243368 1.19998182 9.9762 1 7 C-0.52277007 4.39279682 -0.52277007 4.39279682 -3 3 C-6.88762272 2.64804392 -6.88762272 2.64804392 -9.3125 4.4375 Z " fill="#158BC1" transform="translate(76,77)"/>
<path d="M0 0 C1.875 0.25 1.875 0.25 4 1 C5.25 3.0625 5.25 3.0625 6 5 C6.61875 4.649375 7.2375 4.29875 7.875 3.9375 C8.926875 3.4734375 8.926875 3.4734375 10 3 C10.66 3.33 11.32 3.66 12 4 C11.67 5.65 11.34 7.3 11 9 C10.01 9.33 9.02 9.66 8 10 C8.33 11.32 8.66 12.64 9 14 C8.34 13.67 7.68 13.34 7 13 C7 12.34 7 11.68 7 11 C2.86001651 10.67529541 0.66000999 10.5695587 -2.875 12.875 C-5.45371765 15.45371765 -5.94069718 16.30319184 -6.25 19.9375 C-6.28735472 22.99897421 -6.28735472 22.99897421 -4.5 24.875 C-4.005 25.24625 -3.51 25.6175 -3 26 C-3.99 26 -4.98 26 -6 26 C-5.65213292 27.97536745 -5.65213292 27.97536745 -5 30 C-2.67404054 31.16297973 -1.21276769 31.16600691 1.375 31.1875 C2.14585938 31.20167969 2.91671875 31.21585938 3.7109375 31.23046875 C6.21834888 30.97801607 7.83261902 30.25193467 10 29 C10.39253254 33.44870215 9.15305957 36.14243493 7 40 C-2.08751334 37.86686233 -2.08751334 37.86686233 -5.5 34.625 C-8.48503806 29.4011834 -9.76546833 25.08786533 -9 19 C-7.29405367 14.33109425 -5.16993297 11.71045643 -1 9 C-0.01 9 0.98 9 2 9 C2.33 6.69 2.66 4.38 3 2 C2.34 3.32 1.68 4.64 1 6 C0.01 5.34 -0.98 4.68 -2 4 C-1.34 2.68 -0.68 1.36 0 0 Z M4 6 C5 9 5 9 5 9 Z " fill="#2B2613" transform="translate(10,109)"/>
<path d="M0 0 C-0.72008406 4.60853797 -2.31295939 8.67237409 -4 13 C-3.34 13.33 -2.68 13.66 -2 14 C-1.67 13.01 -1.34 12.02 -1 11 C-0.67 11 -0.34 11 0 11 C0 12.98 0 14.96 0 17 C-1.0725 16.938125 -2.145 16.87625 -3.25 16.8125 C-7.24881248 17.01244062 -8.05428447 17.5803051 -11 20 C-11.99 19.67 -12.98 19.34 -14 19 C-13.814375 18.34 -13.62875 17.68 -13.4375 17 C-12.86972692 13.10669886 -13.40718293 9.88624521 -14 6 C-15.65 6.66 -17.3 7.32 -19 8 C-19 8.66 -19 9.32 -19 10 C-19.66 10 -20.32 10 -21 10 C-21.33 10.66 -21.66 11.32 -22 12 C-22 10.35 -22 8.7 -22 7 C-22.99 6.67 -23.98 6.34 -25 6 C-21.78548731 4.39274365 -18.56387464 4.94251815 -15 5 C-14.67 4.01 -14.34 3.02 -14 2 C-12.948125 2.04125 -11.89625 2.0825 -10.8125 2.125 C-6.85782344 1.99533847 -3.75493549 0 0 0 Z " fill="#38A5CD" transform="translate(174,83)"/>
<path d="M0 0 C0.99 0.33 1.98 0.66 3 1 C3 3.31 3 5.62 3 8 C3.53109375 7.71125 4.0621875 7.4225 4.609375 7.125 C5.31578125 6.75375 6.0221875 6.3825 6.75 6 C7.44609375 5.62875 8.1421875 5.2575 8.859375 4.875 C11 4 11 4 15 4 C14.875 5.8125 14.875 5.8125 14 8 C10.9375 9.75 10.9375 9.75 8 11 C8.42152344 11.53109375 8.84304687 12.0621875 9.27734375 12.609375 C9.82519531 13.31578125 10.37304688 14.0221875 10.9375 14.75 C11.48277344 15.44609375 12.02804688 16.1421875 12.58984375 16.859375 C13.97425654 18.96092128 14.56286987 20.54321799 15 23 C13.68 23.33 12.36 23.66 11 24 C10.25943359 22.93458984 10.25943359 22.93458984 9.50390625 21.84765625 C8.86324219 20.92855469 8.22257812 20.00945312 7.5625 19.0625 C6.60537109 17.68771484 6.60537109 17.68771484 5.62890625 16.28515625 C4.1939118 14.13879294 4.1939118 14.13879294 3 13 C2.67 16.63 2.34 20.26 2 24 C0.68 24 -0.64 24 -2 24 C-2.05819424 20.75007554 -2.09366116 17.50028565 -2.125 14.25 C-2.14175781 13.32960938 -2.15851562 12.40921875 -2.17578125 11.4609375 C-2.18222656 10.57148437 -2.18867187 9.68203125 -2.1953125 8.765625 C-2.20578613 7.94868164 -2.21625977 7.13173828 -2.22705078 6.29003906 C-1.97829916 3.78112482 -1.25700129 2.16604375 0 0 Z " fill="#1A8ABF" transform="translate(45,73)"/>
<path d="M0 0 C1.9375 0.375 1.9375 0.375 4 1 C6.02967618 5.05935236 4.87661591 10.36957138 4.6875 14.8125 C4.65205078 15.90626953 4.61660156 17.00003906 4.58007812 18.12695312 C4.53689453 19.18462891 4.49371094 20.24230469 4.44921875 21.33203125 C4.39254028 22.78186401 4.39254028 22.78186401 4.3347168 24.26098633 C3.97691164 27.18893384 3.37141721 29.38798302 2 32 C0.515 32.495 0.515 32.495 -1 33 C-3 31 -3 31 -3.16699219 28.35791016 C-3.12735352 27.26269043 -3.08771484 26.1674707 -3.046875 25.0390625 C-3.00433594 23.84539062 -2.96179687 22.65171875 -2.91796875 21.421875 C-2.86253906 20.16890625 -2.80710938 18.9159375 -2.75 17.625 C-2.71003906 16.37976563 -2.67007813 15.13453125 -2.62890625 13.8515625 C-2.22392623 3.69422591 -2.22392623 3.69422591 0 0 Z " fill="#D7D034" transform="translate(58,118)"/>
<path d="M0 0 C0.70125 0.00515625 1.4025 0.0103125 2.125 0.015625 C2.82625 0.01046875 3.5275 0.0053125 4.25 0 C6.125 0.265625 6.125 0.265625 8.125 2.265625 C8.125 3.585625 8.125 4.905625 8.125 6.265625 C5.485 5.935625 2.845 5.605625 0.125 5.265625 C0.48659918 8.52001763 1.2074545 9.34204624 3.6875 11.640625 C6.125 14.265625 6.125 14.265625 6.6875 17.390625 C6.125 20.265625 6.125 20.265625 4.5 22.140625 C1.46180449 23.57977024 -0.54939432 23.69017041 -3.875 23.265625 C-5.8125 22.078125 -5.8125 22.078125 -6.875 20.265625 C-6.5625 17.578125 -6.5625 17.578125 -5.875 15.265625 C-2.875 16.265625 -2.875 16.265625 -1.875 18.265625 C-0.885 18.265625 0.105 18.265625 1.125 18.265625 C-0.02213366 15.68457427 -1.09515463 14.03289011 -3.0625 11.953125 C-4.875 9.265625 -4.875 9.265625 -4.75 5.578125 C-3.40391212 0.48222088 -3.40391212 0.48222088 0 0 Z " fill="#1B85B9" transform="translate(12.875,76.734375)"/>
<path d="M0 0 C0.66 0.33 1.32 0.66 2 1 C3.6301763 7.8700287 3.6301763 7.8700287 1.1875 12.25 C0.465625 13.1575 -0.25625 14.065 -1 15 C-1.69429379 16.3191582 -2.37530495 17.64649406 -3 19 C-2.236875 19.4125 -1.47375 19.825 -0.6875 20.25 C1.95787162 21.97256756 3.36476551 23.33198584 5 26 C5 26.66 5 27.32 5 28 C4.34 28 3.68 28 3 28 C3 27.34 3 26.68 3 26 C-4.1724459 23.43841218 -10.45004718 22.88560678 -18 23 C-17.67 27.62 -17.34 32.24 -17 37 C-17.99 37.495 -17.99 37.495 -19 38 C-19.84023188 33.64667264 -20.10770995 29.55557481 -20.0625 25.125 C-20.05347656 23.97257812 -20.04445313 22.82015625 -20.03515625 21.6328125 C-20.02355469 20.76398438 -20.01195313 19.89515625 -20 19 C-18.90558594 18.80083984 -18.90558594 18.80083984 -17.7890625 18.59765625 C-14.43521739 17.87897515 -11.31143881 16.77148585 -8.0859375 15.62109375 C-6 15 -6 15 -3 15 C-0.87431809 11.45719682 -0.37142246 8.08564707 0 4 C-0.33 3.01 -0.66 2.02 -1 1 C-0.67 0.67 -0.34 0.34 0 0 Z " fill="#23B6C8" transform="translate(41,108)"/>
<path d="M0 0 C1.00023193 0.00523682 2.00046387 0.01047363 3.03100586 0.01586914 C4.1105957 0.0190918 5.19018555 0.02231445 6.30249023 0.02563477 C8.00695312 0.03820313 8.00695312 0.03820313 9.74584961 0.05102539 C11.45611328 0.05779297 11.45611328 0.05779297 13.20092773 0.06469727 C16.02845312 0.07652792 18.85587601 0.09301129 21.68334961 0.11352539 C22.34334961 1.43352539 23.00334961 2.75352539 23.68334961 4.11352539 C22.95881592 3.95779053 22.23428223 3.80205566 21.48779297 3.64160156 C13.91255824 2.21518625 5.26370528 1.51213424 -2.31665039 3.11352539 C-5.86613351 5.96991418 -6.99144012 8.84190853 -8.31665039 13.11352539 C-9.30665039 14.59852539 -9.30665039 14.59852539 -10.31665039 16.11352539 C-10.78123504 22.71300989 -8.84428665 27.79772849 -5.37524414 33.30102539 C-4.31665039 35.11352539 -4.31665039 35.11352539 -4.31665039 37.11352539 C-6.12915039 36.92602539 -6.12915039 36.92602539 -8.31665039 36.11352539 C-10.06665039 33.55102539 -10.06665039 33.55102539 -11.31665039 31.11352539 C-11.97665039 31.77352539 -12.63665039 32.43352539 -13.31665039 33.11352539 C-12.98665039 30.47352539 -12.65665039 27.83352539 -12.31665039 25.11352539 C-15.78165039 23.13352539 -15.78165039 23.13352539 -19.31665039 21.11352539 C-18.98665039 20.45352539 -18.65665039 19.79352539 -18.31665039 19.11352539 C-17.57930664 18.90856445 -16.84196289 18.70360352 -16.08227539 18.49243164 C-11.91228889 16.4133282 -10.35618138 12.99601068 -8.06665039 9.05102539 C-7.18715811 7.5805448 -6.30698552 6.11047082 -5.42602539 4.64086914 C-5.04414063 3.98852295 -4.66225586 3.33617676 -4.26879883 2.6640625 C-2.7145475 0.13302398 -2.7145475 0.13302398 0 0 Z " fill="#6CC6DD" transform="translate(183.316650390625,43.886474609375)"/>
<path d="M0 0 C0 1.32 0 2.64 0 4 C-1.03125 3.7525 -2.0625 3.505 -3.125 3.25 C-7.84419036 2.94553611 -9.3958514 4.08235589 -13 7 C-14.9685797 8.9685797 -14.67504693 12.3539536 -15 15 C-15.10540926 17.21081851 -15.10540926 17.21081851 -14 20 C-12.1346755 21.01754868 -12.1346755 21.01754868 -9.9375 21.6875 C-9.20402344 21.93886719 -8.47054687 22.19023438 -7.71484375 22.44921875 C-7.14894531 22.63097656 -6.58304688 22.81273438 -6 23 C-6 23.99 -6 24.98 -6 26 C-8.31 26.33 -10.62 26.66 -13 27 C-13.33 26.01 -13.66 25.02 -14 24 C-16.31 23.67 -18.62 23.34 -21 23 C-20.835 21.96875 -20.67 20.9375 -20.5 19.875 C-19.89365866 16.12227101 -19.89365866 16.12227101 -20.1875 12.8125 C-20 10 -20 10 -18.125 7.625 C-16 6 -16 6 -14 6 C-13.79375 5.236875 -13.5875 4.47375 -13.375 3.6875 C-10.29725072 -2.32810086 -5.71630034 -2.58594539 0 0 Z " fill="#A2C663" transform="translate(165,62)"/>
<path d="M0 0 C1.32 0.33 2.64 0.66 4 1 C4.33 2.32 4.66 3.64 5 5 C6.65 4.34 8.3 3.68 10 3 C10 3.99 10 4.98 10 6 C6.535 7.485 6.535 7.485 3 9 C1.95550089 5.86650268 2.06576355 5.01031744 3 2 C2.34 2 1.68 2 1 2 C0.67 5.96 0.34 9.92 0 14 C0.66 14 1.32 14 2 14 C2 17.3 2 20.6 2 24 C2.66 22.35 3.32 20.7 4 19 C4.33 19 4.66 19 5 19 C5.22126178 21.45779976 5.42750395 23.91527648 5.625 26.375 C5.68945312 27.07367188 5.75390625 27.77234375 5.8203125 28.4921875 C5.96119739 30.32369111 5.98761659 32.16312748 6 34 C5.34 34.66 4.68 35.32 4 36 C1.875 35.625 1.875 35.625 0 35 C-0.33947025 31.50056733 -0.67044773 28.00037948 -1 24.5 C-1.09539062 23.51773438 -1.19078125 22.53546875 -1.2890625 21.5234375 C-2.77914326 5.55828652 -2.77914326 5.55828652 0 0 Z " fill="#D13435" transform="translate(72,116)"/>
<path d="M0 0 C1.65 0.33 3.3 0.66 5 1 C6.29243536 5.1196377 7.26252625 8.66831683 7 13 C6.34 13 5.68 13 5 13 C5.33 14.98 5.66 16.96 6 19 C2.94736336 19.98120464 1.05263664 19.98120464 -2 19 C-2.38218767 17.34385343 -2.71395102 15.67542976 -3 14 C-2.67 13.67 -2.34 13.34 -2 13 C-1.96834118 10.47633967 -2.06824712 7.96729895 -2.16015625 5.4453125 C-2 3 -2 3 0 0 Z M0 20 C2 21 2 21 2 21 Z " fill="#F69D4D" transform="translate(177,87)"/>
<path d="M0 0 C-0.66 0 -1.32 0 -2 0 C-1.67 0.99 -1.34 1.98 -1 3 C-1.33 3.66 -1.66 4.32 -2 5 C-2.99 4.67 -3.98 4.34 -5 4 C-5 3.34 -5 2.68 -5 2 C-5.99 2.33 -6.98 2.66 -8 3 C-7.01 4.65 -6.02 6.3 -5 8 C-6.65 8 -8.3 8 -10 8 C-10 8.66 -10 9.32 -10 10 C-10.66 10 -11.32 10 -12 10 C-12.061875 10.61875 -12.12375 11.2375 -12.1875 11.875 C-13 14 -13 14 -15.5625 15.25 C-16.366875 15.4975 -17.17125 15.745 -18 16 C-19.65236085 14.34763915 -19.32780449 12.45786456 -19.4375 10.1875 C-19.36207917 5.38113596 -19.36207917 5.38113596 -16.625 2.5 C-11.3026111 0.29763218 -5.62823295 -1.87607765 0 0 Z " fill="#676B67" transform="translate(199,60)"/>
<path d="M0 0 C0.66 0.33 1.32 0.66 2 1 C2 3.83967231 1.59732819 6.23735711 1 9 C-0.65 9.33 -2.3 9.66 -4 10 C-4 9.01 -4 8.02 -4 7 C-5.98 7.66 -7.96 8.32 -10 9 C-9.67 10.65 -9.34 12.3 -9 14 C-9.66 14 -10.32 14 -11 14 C-11 13.34 -11 12.68 -11 12 C-11.99 12 -12.98 12 -14 12 C-14 13.65 -14 15.3 -14 17 C-14.33 17 -14.66 17 -15 17 C-15 13.7 -15 10.4 -15 7 C-16.98 7 -18.96 7 -21 7 C-21.33 7.66 -21.66 8.32 -22 9 C-23.9375 8.6875 -23.9375 8.6875 -26 8 C-26.33 7.01 -26.66 6.02 -27 5 C-25.824375 5.0309375 -25.824375 5.0309375 -24.625 5.0625 C-22.01885039 5.18684063 -22.01885039 5.18684063 -20 4 C-18.39125 4.061875 -18.39125 4.061875 -16.75 4.125 C-12.97734134 4.2602642 -12.97734134 4.2602642 -9.875 2.4375 C-6.55172765 0.77586383 -5.47803079 1.1304923 -2 2 C-1.34 1.34 -0.68 0.68 0 0 Z M-9 4 C-10.32 4.99 -11.64 5.98 -13 7 C-11.02 6.67 -9.04 6.34 -7 6 C-7.66 5.34 -8.32 4.68 -9 4 Z " fill="#45473E" transform="translate(210,80)"/>
<path d="M0 0 C2.30634419 2.80772336 2.19642641 5.46432469 2 9 C-0.32686453 10.16343227 -1.84721413 10.19895988 -4.4375 10.25 C-5.21996094 10.27578125 -6.00242187 10.3015625 -6.80859375 10.328125 C-9 10 -9 10 -10.7890625 8.640625 C-12 7 -12 7 -11.9375 4.5 C-9.67767932 -1.52618849 -5.7867824 -1.60743956 0 0 Z " fill="#E9E56C" transform="translate(17,120)"/>
<path d="M0 0 C0.66 0 1.32 0 2 0 C2 1.65 2 3.3 2 5 C3.32 5 4.64 5 6 5 C5 8 5 8 3 9 C2.67 14.94 2.34 20.88 2 27 C1.01 27 0.02 27 -1 27 C-3.46904656 24.53095344 -2.18551046 17.9435462 -2.1875 14.625 C-2.19974609 13.55765625 -2.21199219 12.4903125 -2.22460938 11.390625 C-2.22654297 10.36710937 -2.22847656 9.34359375 -2.23046875 8.2890625 C-2.23457764 7.34756348 -2.23868652 6.40606445 -2.24291992 5.43603516 C-2 3 -2 3 0 0 Z " fill="#0791D1" transform="translate(116,74)"/>
<path d="M0 0 C0.99 0 1.98 0 3 0 C3.19619224 4.29131609 3.38048583 8.58306102 3.5625 12.875 C3.61857422 14.09832031 3.67464844 15.32164063 3.73242188 16.58203125 C3.78076172 17.74863281 3.82910156 18.91523437 3.87890625 20.1171875 C3.9260376 21.19597168 3.97316895 22.27475586 4.02172852 23.38623047 C4 26 4 26 3 28 C2.01 27.67 1.02 27.34 0 27 C-1.29776917 24.40446166 -1.12950035 22.49294473 -1.1328125 19.58984375 C-1.13410156 18.51798828 -1.13539062 17.44613281 -1.13671875 16.34179688 C-1.13285156 15.21837891 -1.12898438 14.09496094 -1.125 12.9375 C-1.12886719 11.81021484 -1.13273437 10.68292969 -1.13671875 9.52148438 C-1.13542969 8.45091797 -1.13414063 7.38035156 -1.1328125 6.27734375 C-1.13168457 5.28984131 -1.13055664 4.30233887 -1.12939453 3.28491211 C-1 1 -1 1 0 0 Z " fill="#178DC6" transform="translate(85,74)"/>
<path d="M0 0 C1.32 0.66 2.64 1.32 4 2 C3.67 3.98 3.34 5.96 3 8 C2.34 8 1.68 8 1 8 C0.67 8.99 0.34 9.98 0 11 C-0.66 11 -1.32 11 -2 11 C-2.14358798 18.96115596 -2.27659036 27.12367833 -1 35 C-0.34 35.33 0.32 35.66 1 36 C1 36.66 1 37.32 1 38 C-0.32 38 -1.64 38 -3 38 C-5.09173338 33.81653325 -4.22688595 28.39044455 -4.24023438 23.78857422 C-4.24989756 21.77138359 -4.2809003 19.75523084 -4.3125 17.73828125 C-4.31765625 16.45824219 -4.3228125 15.17820312 -4.328125 13.859375 C-4.3374707 12.68858398 -4.34681641 11.51779297 -4.35644531 10.31152344 C-3.93862166 6.42977003 -2.83669157 2.83669157 0 0 Z " fill="#77AB56" transform="translate(136,111)"/>
<path d="M0 0 C1.23556641 0.01740234 1.23556641 0.01740234 2.49609375 0.03515625 C3.32238281 0.04417969 4.14867187 0.05320313 5 0.0625 C5.63808594 0.07410156 6.27617187 0.08570313 6.93359375 0.09765625 C6.93359375 0.42765625 6.93359375 0.75765625 6.93359375 1.09765625 C4.29359375 1.42765625 1.65359375 1.75765625 -1.06640625 2.09765625 C0.11179613 10.56289991 0.11179613 10.56289991 3.93359375 18.09765625 C3.93359375 18.75765625 3.93359375 19.41765625 3.93359375 20.09765625 C6.40859375 21.08765625 6.40859375 21.08765625 8.93359375 22.09765625 C8.60359375 22.75765625 8.27359375 23.41765625 7.93359375 24.09765625 C5.95359375 23.10765625 3.97359375 22.11765625 1.93359375 21.09765625 C2.26359375 22.41765625 2.59359375 23.73765625 2.93359375 25.09765625 C-3.19345519 19.30179915 -5.36515443 15.37242769 -6.06640625 7.09765625 C-5.40640625 6.76765625 -4.74640625 6.43765625 -4.06640625 6.09765625 C-3.40640625 9.06765625 -2.74640625 12.03765625 -2.06640625 15.09765625 C-2.15019531 14.09863281 -2.23398437 13.09960938 -2.3203125 12.0703125 C-2.42214844 10.77996094 -2.52398438 9.48960937 -2.62890625 8.16015625 C-2.73332031 6.87238281 -2.83773438 5.58460938 -2.9453125 4.2578125 C-2.98527344 3.21496094 -3.02523438 2.17210937 -3.06640625 1.09765625 C-2.06640625 0.09765625 -2.06640625 0.09765625 0 0 Z " fill="#28A4B2" transform="translate(25.06640625,129.90234375)"/>
<path d="M0 0 C1.5 1.125 1.5 1.125 3 3 C3.63812736 7.78595522 2.64368415 10.98889301 0 15 C-2.6875 16.375 -2.6875 16.375 -5 17 C-6.1851431 10.70303484 -6.27722646 6.6181025 -3 1 C-2.01 0.67 -1.02 0.34 0 0 Z " fill="#675F56" transform="translate(208,66)"/>
<path d="M0 0 C1.65 0.33 3.3 0.66 5 1 C6.33743169 7.20081967 6.33743169 7.20081967 4.8125 10.8125 C2.90638498 13.11298365 1.82339658 14.08654817 -1 15 C-3.75 15.125 -3.75 15.125 -6 15 C-6.33 13.68 -6.66 12.36 -7 11 C-4.69 10.34 -2.38 9.68 0 9 C0 7.35 0 5.7 0 4 C-1.98 4.33 -3.96 4.66 -6 5 C-2.25 2 -2.25 2 0 2 C0 1.34 0 0.68 0 0 Z " fill="#8E786F" transform="translate(163,69)"/>
<path d="M0 0 C1.9375 0.375 1.9375 0.375 4 1 C6.02967618 5.05935236 4.87661591 10.36957138 4.6875 14.8125 C4.65205078 15.90626953 4.61660156 17.00003906 4.58007812 18.12695312 C4.53689453 19.18462891 4.49371094 20.24230469 4.44921875 21.33203125 C4.39254028 22.78186401 4.39254028 22.78186401 4.3347168 24.26098633 C3.97691164 27.18893384 3.37141721 29.38798302 2 32 C0.515 32.495 0.515 32.495 -1 33 C-3 31 -3 31 -3.13525391 28.29443359 C-3.08288574 27.17375488 -3.03051758 26.05307617 -2.9765625 24.8984375 C-2.89921875 23.08085937 -2.89921875 23.08085937 -2.8203125 21.2265625 C-2.75585938 19.95554688 -2.69140625 18.68453125 -2.625 17.375 C-2.56828125 16.09625 -2.5115625 14.8175 -2.453125 13.5 C-2.31130977 10.33279313 -2.15986504 7.16633887 -2 4 C-1.67 4 -1.34 4 -1 4 C-1 12.91 -1 21.82 -1 31 C-0.34 31 0.32 31 1 31 C1.80929482 27.39129392 2.17814083 23.95538062 2.31640625 20.26171875 C2.35830078 19.19501953 2.40019531 18.12832031 2.44335938 17.02929688 C2.48267578 15.92650391 2.52199219 14.82371094 2.5625 13.6875 C2.62727539 12.00430664 2.62727539 12.00430664 2.69335938 10.28710938 C2.79914787 7.52485431 2.90123672 4.7625137 3 2 C1.68 2.33 0.36 2.66 -1 3 C-0.67 2.01 -0.34 1.02 0 0 Z " fill="#C4C351" transform="translate(58,118)"/>
<path d="M0 0 C0.66 3.3 1.32 6.6 2 10 C-0.48020497 9.88658509 -2.95844969 9.75985314 -5.4375 9.625 C-6.14455078 9.5940625 -6.85160156 9.563125 -7.58007812 9.53125 C-9.39239188 9.42719371 -11.19817988 9.22080108 -13 9 C-13.33 8.34 -13.66 7.68 -14 7 C-11.625 5.9375 -11.625 5.9375 -9 5 C-8.34 5.33 -7.68 5.66 -7 6 C-7 5.34 -7 4.68 -7 4 C-6.34 4 -5.68 4 -5 4 C-5.33 3.01 -5.66 2.02 -6 1 C-3.92446352 0.4465236 -2.15634036 0 0 0 Z " fill="#9DBE62" transform="translate(160,89)"/>
<path d="M0 0 C0.66 0 1.32 0 2 0 C2 1.98 2 3.96 2 6 C6.32371893 3.97366931 6.32371893 3.97366931 10 1 C12.475 1.99 12.475 1.99 15 3 C15 3.66 15 4.32 15 5 C13.98679687 5.19916016 13.98679687 5.19916016 12.953125 5.40234375 C11.61507812 5.66724609 11.61507812 5.66724609 10.25 5.9375 C9.36828125 6.11152344 8.4865625 6.28554687 7.578125 6.46484375 C5.36764947 6.92368488 3.18487932 7.43336074 1 8 C1.16757813 8.65226562 1.33515625 9.30453125 1.5078125 9.9765625 C2.74685535 15.2934679 3.43193777 18.86590915 1 24 C0.67 24 0.34 24 0 24 C-0.02712066 22.56260487 -0.04645067 21.12506137 -0.0625 19.6875 C-0.07410156 18.88699219 -0.08570312 18.08648437 -0.09765625 17.26171875 C0 15 0 15 1 12 C0.34 12 -0.32 12 -1 12 C-1.02698189 10.37509046 -1.04638757 8.75005367 -1.0625 7.125 C-1.07410156 6.22007813 -1.08570312 5.31515625 -1.09765625 4.3828125 C-1 2 -1 2 0 0 Z " fill="#E73438" transform="translate(73,118)"/>
<path d="M0 0 C1.875 0.25 1.875 0.25 4 1 C5.25 3.0625 5.25 3.0625 6 5 C6.61875 4.649375 7.2375 4.29875 7.875 3.9375 C8.57625 3.628125 9.2775 3.31875 10 3 C10.66 3.33 11.32 3.66 12 4 C11.67 5.65 11.34 7.3 11 9 C10.01 9.33 9.02 9.66 8 10 C8.33 11.32 8.66 12.64 9 14 C8.34 13.67 7.68 13.34 7 13 C7 12.34 7 11.68 7 11 C5.906875 11 4.81375 11 3.6875 11 C1.45833333 11 -0.77083333 11 -3 11 C-2.34 10.34 -1.68 9.68 -1 9 C-0.01 9 0.98 9 2 9 C2.33 6.69 2.66 4.38 3 2 C2.34 3.32 1.68 4.64 1 6 C0.01 5.34 -0.98 4.68 -2 4 C-1.34 2.68 -0.68 1.36 0 0 Z M4 6 C5 9 5 9 5 9 Z " fill="#34371A" transform="translate(10,109)"/>
<path d="M0 0 C0 3 0 3 -1 5 C-1.07033769 6.87379605 -1.0843022 8.75001102 -1.0625 10.625 C-1.04896484 12.12933594 -1.04896484 12.12933594 -1.03515625 13.6640625 C-1.02355469 14.43492188 -1.01195312 15.20578125 -1 16 C-1.66 16 -2.32 16 -3 16 C-2.67 17.65 -2.34 19.3 -2 21 C-0.68 21.33 0.64 21.66 2 22 C1.01 23.32 0.02 24.64 -1 26 C-2.98 22.37 -4.96 18.74 -7 15 C-5.68 15 -4.36 15 -3 15 C-3.33 13.35 -3.66 11.7 -4 10 C-4.33 10.66 -4.66 11.32 -5 12 C-5.99 11.67 -6.98 11.34 -8 11 C-5.66153846 3.49230769 -5.66153846 3.49230769 -2.3125 1 C-1.1678125 0.505 -1.1678125 0.505 0 0 Z " fill="#EAA766" transform="translate(177,85)"/>
<path d="M0 0 C4.09553782 -0.32764303 6.53860663 -0.23069669 10.25 1.625 C13.30490716 4.26332891 14.61347955 6.22558321 16 10 C16.1875 12.875 16.1875 12.875 16 15 C15.01 15.495 15.01 15.495 14 16 C13.34 13.03 12.68 10.06 12 7 C12 7.99 12 8.98 12 10 C11.67 10.66 11.34 11.32 11 12 C10.34 12 9.68 12 9 12 C8.67 10.35 8.34 8.7 8 7 C5.69 6.67 3.38 6.34 1 6 C1 5.67 1 5.34 1 5 C2.65 4.67 4.3 4.34 6 4 C6 3.01 6 2.02 6 1 C4.02 1 2.04 1 0 1 C0 0.67 0 0.34 0 0 Z " fill="#2CA8D1" transform="translate(112,116)"/>
<path d="M0 0 C0 1.32 0 2.64 0 4 C-1.03125 3.7525 -2.0625 3.505 -3.125 3.25 C-7.00772862 2.69038668 -7.00772862 2.69038668 -10.25 4.5 C-13.59864022 7.54421838 -14.53601026 9.77069632 -16 14 C-16.99 14 -17.98 14 -19 14 C-19.75 12.25 -19.75 12.25 -20 10 C-18.1875 7.75 -18.1875 7.75 -16 6 C-15.34 6 -14.68 6 -14 6 C-13.79375 5.236875 -13.5875 4.47375 -13.375 3.6875 C-10.29725072 -2.32810086 -5.71630034 -2.58594539 0 0 Z " fill="#333825" transform="translate(165,62)"/>
<path d="M0 0 C0 0.66 0 1.32 0 2 C-0.99 2.639375 -1.98 3.27875 -3 3.9375 C-4.485 4.9584375 -4.485 4.9584375 -6 6 C-6 6.99 -6 7.98 -6 9 C-5.34 9.33 -4.68 9.66 -4 10 C-4.75724648 11.98440482 -5.53122962 13.96243005 -6.3125 15.9375 C-6.74175781 17.03964844 -7.17101562 18.14179687 -7.61328125 19.27734375 C-9 22 -9 22 -12 23 C-12.95690343 17.69353551 -12.95690343 17.69353551 -13 15 C-11.6875 13.4375 -11.6875 13.4375 -10 12 C-9.731875 10.88625 -9.46375 9.7725 -9.1875 8.625 C-7.81059997 4.42183148 -5.01358213 0 0 0 Z " fill="#27A6B2" transform="translate(31,105)"/>
<path d="M0 0 C0.99 0 1.98 0 3 0 C3 0.66 3 1.32 3 2 C3.66 2 4.32 2 5 2 C6.01240833 5.72876073 6.26378003 7.44944005 4.56640625 10.9921875 C3.90511719 11.94351563 3.24382812 12.89484375 2.5625 13.875 C1.57443359 15.32519531 1.57443359 15.32519531 0.56640625 16.8046875 C-0.20896484 17.89136719 -0.20896484 17.89136719 -1 19 C-2.53445094 15.93109813 -1.54984289 13.29905734 -1 10 C-0.67 10.66 -0.34 11.32 0 12 C0.66 12 1.32 12 2 12 C1.67 10.68 1.34 9.36 1 8 C0.34 8 -0.32 8 -1 8 C-0.67 5.36 -0.34 2.72 0 0 Z " fill="#E7AA70" transform="translate(196,92)"/>
<path d="M0 0 C1.98 0 3.96 0 6 0 C6 3.3 6 6.6 6 10 C1.545 9.01 1.545 9.01 -3 8 C-2.22404875 4.89619499 -1.4731994 2.74997221 0 0 Z " fill="#F1E96C" transform="translate(189,87)"/>
<path d="M0 0 C1.22976563 0.12568359 1.22976563 0.12568359 2.484375 0.25390625 C3.56203125 0.35574219 4.6396875 0.45757812 5.75 0.5625 C6.81734375 0.66691406 7.8846875 0.77132812 8.984375 0.87890625 C11.64141204 0.98560074 13.49960572 0.81930395 16 0 C14.25 4.875 14.25 4.875 12 6 C9.94140625 6.16796875 9.94140625 6.16796875 7.5625 6.1875 C6.38880859 6.20876953 6.38880859 6.20876953 5.19140625 6.23046875 C3 6 3 6 0 4 C0 2.68 0 1.36 0 0 Z " fill="#F0E831" transform="translate(4,135)"/>
<path d="M0 0 C2.26364287 3.61104933 2.26808674 6.66983266 2.25 10.875 C2.25515625 12.06867188 2.2603125 13.26234375 2.265625 14.4921875 C2.00134006 17.98230337 1.25362935 20.74653337 0 24 C-1.32 23.67 -2.64 23.34 -4 23 C-3.01 21.515 -3.01 21.515 -2 20 C-1.72598982 17.97078331 -1.72598982 17.97078331 -1.8046875 15.76953125 C-1.81113281 14.96708984 -1.81757812 14.16464844 -1.82421875 13.33789062 C-1.84935547 12.08782227 -1.84935547 12.08782227 -1.875 10.8125 C-1.88853516 9.5450293 -1.88853516 9.5450293 -1.90234375 8.25195312 C-1.92589297 6.16784757 -1.96176353 4.08388783 -2 2 C-1.34 2 -0.68 2 0 2 C0 1.34 0 0.68 0 0 Z " fill="#E53338" transform="translate(92,124)"/>
<path d="M0 0 C2.234375 0.10546875 2.234375 0.10546875 5 1 C6.66374853 3.11508457 7.94331114 4.998153 9.25 7.3125 C9.600625 7.89451172 9.95125 8.47652344 10.3125 9.07617188 C12.02402405 11.98247137 13.43839611 14.65515333 14 18 C12.1875 17.8125 12.1875 17.8125 10 17 C8.25 14.4375 8.25 14.4375 7 12 C6.34 12.66 5.68 13.32 5 14 C5.33 11.36 5.66 8.72 6 6 C2.535 4.02 2.535 4.02 -1 2 C-0.67 1.34 -0.34 0.68 0 0 Z " fill="#DAF1E8" transform="translate(165,63)"/>
<path d="M0 0 C-0.66 0 -1.32 0 -2 0 C-1.67 0.99 -1.34 1.98 -1 3 C-1.33 3.66 -1.66 4.32 -2 5 C-2.99 4.67 -3.98 4.34 -5 4 C-5 3.34 -5 2.68 -5 2 C-5.99 2.33 -6.98 2.66 -8 3 C-7.01 4.65 -6.02 6.3 -5 8 C-7.375 7.75 -7.375 7.75 -10 7 C-11.3125 4.9375 -11.3125 4.9375 -12 3 C-12.99 4.485 -12.99 4.485 -14 6 C-13.34 6 -12.68 6 -12 6 C-12.33 6.99 -12.66 7.98 -13 9 C-13.66 9 -14.32 9 -15 9 C-15.6875 7.25 -15.6875 7.25 -16 5 C-14.4863674 2.33215927 -13.53636696 1.19496233 -10.625 0.13671875 C-9.325625 -0.08564453 -9.325625 -0.08564453 -8 -0.3125 C-6.700625 -0.55419922 -6.700625 -0.55419922 -5.375 -0.80078125 C-3 -1 -3 -1 0 0 Z " fill="#324A51" transform="translate(199,60)"/>
<path d="M0 0 C0.66 0 1.32 0 2 0 C2.33 3.3 2.66 6.6 3 10 C4.32 10 5.64 10 7 10 C7.66 12.64 8.32 15.28 9 18 C6.69 18 4.38 18 2 18 C2 16.35 2 14.7 2 13 C1.01 12.67 0.02 12.34 -1 12 C-0.9278125 11.38511719 -0.855625 10.77023438 -0.78125 10.13671875 C-0.64203125 8.92435547 -0.64203125 8.92435547 -0.5 7.6875 C-0.4071875 6.88699219 -0.314375 6.08648437 -0.21875 5.26171875 C0.04813463 2.88103445 0.04813463 2.88103445 0 0 Z " fill="#11A7DA" transform="translate(178,65)"/>
<path d="M0 0 C0.66 0 1.32 0 2 0 C3.54181816 2.01392527 4.90222953 3.98715719 6.25 6.125 C6.63929688 6.69476563 7.02859375 7.26453125 7.4296875 7.8515625 C9.45267889 11.05341937 10.10130497 12.52193158 9.3046875 16.28125 C8.87414062 17.1784375 8.44359375 18.075625 8 19 C7.62875 19.78375 7.2575 20.5675 6.875 21.375 C6.58625 21.91125 6.2975 22.4475 6 23 C5.34 23 4.68 23 4 23 C3.34 21.35 2.68 19.7 2 18 C1.34 18 0.68 18 0 18 C0 17.01 0 16.02 0 15 C0.99 14.67 1.98 14.34 3 14 C3.33 14.99 3.66 15.98 4 17 C4.66 17 5.32 17 6 17 C6.36071142 13.12235221 6.37199479 11.499868 4 8.3125 C3.01 7.1678125 3.01 7.1678125 2 6 C2 5.01 2 4.02 2 3 C1.34 3 0.68 3 0 3 C0 2.01 0 1.02 0 0 Z " fill="#58B0CE" transform="translate(207,50)"/>
<path d="M0 0 C0 1.65 0 3.3 0 5 C-0.639375 5.309375 -1.27875 5.61875 -1.9375 5.9375 C-3.93610821 6.8345163 -3.93610821 6.8345163 -5 8 C-8.16620913 8.34229288 -9.60483847 8.25632099 -12.3125 6.5 C-12.869375 6.005 -13.42625 5.51 -14 5 C-13.67 4.01 -13.34 3.02 -13 2 C-12.07767578 2.03480469 -12.07767578 2.03480469 -11.13671875 2.0703125 C-9.92435547 2.09738281 -9.92435547 2.09738281 -8.6875 2.125 C-7.48673828 2.15980469 -7.48673828 2.15980469 -6.26171875 2.1953125 C-3.69956986 1.97405612 -2.35698266 0 0 0 Z " fill="#4B4E2A" transform="translate(20,138)"/>
<path d="M0 0 C1.9375 0.375 1.9375 0.375 4 1 C5.4783226 3.95664519 5.06032783 6.74229737 5 10 C-2.75 11.125 -2.75 11.125 -5 10 C-5 10.66 -5 11.32 -5 12 C-6.98 12 -8.96 12 -11 12 C-11 11.34 -11 10.68 -11 10 C-6.9472484 9.01751476 -3.16138263 8.91840426 1 9 C0.67 8.01 0.34 7.02 0 6 C0.66 6 1.32 6 2 6 C2 4.68 2 3.36 2 2 C1.34 1.34 0.68 0.68 0 0 Z " fill="#21B4E9" transform="translate(121,122)"/>
<path d="M0 0 C1.32 0.33 2.64 0.66 4 1 C4.33 2.32 4.66 3.64 5 5 C6.65 4.34 8.3 3.68 10 3 C10 3.99 10 4.98 10 6 C6.535 7.485 6.535 7.485 3 9 C1.95550089 5.86650268 2.06576355 5.01031744 3 2 C2.34 2 1.68 2 1 2 C0.67 5.96 0.34 9.92 0 14 C-0.66 13.67 -1.32 13.34 -2 13 C-2.16682272 8.07872966 -2.24828052 4.49656104 0 0 Z " fill="#C92C2D" transform="translate(72,116)"/>
<path d="M0 0 C0.66 0.33 1.32 0.66 2 1 C2.125 3.375 2.125 3.375 2 6 C0 8 0 8 -3.125 8.125 C-4.07375 8.08375 -5.0225 8.0425 -6 8 C-6.66 6.68 -7.32 5.36 -8 4 C-6.71349294 3.30289269 -5.42059335 2.61757124 -4.125 1.9375 C-3.40570313 1.55464844 -2.68640625 1.17179687 -1.9453125 0.77734375 C-1.30335938 0.52082031 -0.66140625 0.26429687 0 0 Z " fill="#F8F6F6" transform="translate(162,72)"/>
<path d="M0 0 C-1.33283518 4.19302742 -2.88508595 6.07006181 -6.4375 8.625 C-9.16755913 10.6129508 -11.68082798 12.53914223 -14 15 C-12.68552225 11.43574301 -11.11594205 8.40275366 -9 5.25 C-8.2265625 4.08210938 -8.2265625 4.08210938 -7.4375 2.890625 C-5.05499441 -0.24288778 -4.07806699 0 0 0 Z " fill="#9FC16D" transform="translate(153,63)"/>
<path d="M0 0 C1.4540625 0.0309375 1.4540625 0.0309375 2.9375 0.0625 C3.625 2.375 3.625 2.375 3.9375 5.0625 C2.75 6.9375 2.75 6.9375 0.9375 8.0625 C-1.19995922 7.81103421 -2.52175779 7.60324221 -4.0625 6.0625 C-4.1875 3.5625 -4.1875 3.5625 -4.0625 1.0625 C-3.0625 0.0625 -3.0625 0.0625 0 0 Z " fill="#D5CC48" transform="translate(60.0625,107.9375)"/>
<path d="M0 0 C1.32 0.66 2.64 1.32 4 2 C4 2.66 4 3.32 4 4 C4.66 4.33 5.32 4.66 6 5 C6.33 4.01 6.66 3.02 7 2 C7.33 2 7.66 2 8 2 C8 3.98 8 5.96 8 8 C4.66666667 8 1.33333333 8 -2 8 C-2 4.23312136 -1.76462683 3.08809695 0 0 Z " fill="#A17154" transform="translate(166,92)"/>
<path d="M0 0 C0.33 0 0.66 0 1 0 C1 7.26 1 14.52 1 22 C1.66 22 2.32 22 3 22 C3 16.06 3 10.12 3 4 C4.32 4.33 5.64 4.66 7 5 C6.01 5.495 6.01 5.495 5 6 C4.67 11.94 4.34 17.88 4 24 C3.01 24 2.02 24 1 24 C0 23 0 23 -0.11352539 20.77514648 C-0.10828857 19.81680908 -0.10305176 18.85847168 -0.09765625 17.87109375 C-0.09443359 16.83662109 -0.09121094 15.80214844 -0.08789062 14.73632812 C-0.07951172 13.64771484 -0.07113281 12.55910156 -0.0625 11.4375 C-0.05798828 10.34501953 -0.05347656 9.25253906 -0.04882812 8.12695312 C-0.03699826 5.41791505 -0.02051543 2.70898401 0 0 Z " fill="#1C8BBF" transform="translate(114,77)"/>
<path d="M0 0 C0.66 0.33 1.32 0.66 2 1 C2 3.83967231 1.59732819 6.23735711 1 9 C-0.65 9.33 -2.3 9.66 -4 10 C-4 9.01 -4 8.02 -4 7 C-6.31 7.66 -8.62 8.32 -11 9 C-11 7 -11 7 -9.75 5.3125 C-9.1725 4.879375 -8.595 4.44625 -8 4 C-5.8125 4.3125 -5.8125 4.3125 -4 5 C-3.67 4.34 -3.34 3.68 -3 3 C-2.01979625 1.9805881 -1.02196992 0.97753644 0 0 Z " fill="#040712" transform="translate(210,80)"/>
<path d="M0 0 C3.125 -0.1875 3.125 -0.1875 6 0 C6 0.99 6 1.98 6 3 C5.34 3 4.68 3 4 3 C4.33 3.66 4.66 4.32 5 5 C5.66 4.67 6.32 4.34 7 4 C6.67 4.99 6.34 5.98 6 7 C4.02 7.33 2.04 7.66 0 8 C-1.125 5.6875 -1.125 5.6875 -2 3 C-1.34 2.01 -0.68 1.02 0 0 Z " fill="#BBB218" transform="translate(10,121)"/>
<path d="M0 0 C0.66 0.99 1.32 1.98 2 3 C1.67 3.99 1.34 4.98 1 6 C0.34 5.67 -0.32 5.34 -1 5 C-1.33 5.66 -1.66 6.32 -2 7 C-2.33 7.61875 -2.66 8.2375 -3 8.875 C-3.96034611 10.91573548 -4.52882577 12.80118692 -5 15 C-5.99 14.67 -6.98 14.34 -8 14 C-7.835 13.278125 -7.67 12.55625 -7.5 11.8125 C-7.02412881 9.13572455 -6.922557 6.71050513 -7 4 C-6.030625 3.71125 -5.06125 3.4225 -4.0625 3.125 C-0.89335797 2.35785318 -0.89335797 2.35785318 0 0 Z " fill="#5B3930" transform="translate(168,88)"/>
<path d="M0 0 C0.5534764 2.07553648 1 3.84365964 1 6 C2.65 6.33 4.3 6.66 6 7 C5.01 8.485 5.01 8.485 4 10 C0.375 10.6875 0.375 10.6875 -3 11 C-3.98995103 8.32713221 -4.04574968 7.14780667 -3.1875 4.375 C-2 2 -2 2 0 0 Z " fill="#098ECE" transform="translate(27,80)"/>
<path d="M0 0 C0.66 0 1.32 0 2 0 C2.375 2.25 2.375 2.25 2 5 C-1.36200222 8.03400201 -3.33250543 8.95693583 -7.875 9.25 C-8.90625 9.1675 -9.9375 9.085 -11 9 C-10.67 8.01 -10.34 7.02 -10 6 C-6.625 4.875 -6.625 4.875 -3 4 C-2.01 3.67 -1.02 3.34 0 3 C0 2.01 0 1.02 0 0 Z " fill="#EDDFD7" transform="translate(201,76)"/>
<path d="M0 0 C0.99 0.33 1.98 0.66 3 1 C3 2.98 3 4.96 3 7 C0.35261084 8.4606285 -0.89448334 9 -4 9 C-4 8.01 -4 7.02 -4 6 C-5.65 6.33 -7.3 6.66 -9 7 C-7.35 5.35 -5.7 3.7 -4 2 C-1.525 2.99 -1.525 2.99 1 4 C0.67 2.68 0.34 1.36 0 0 Z " fill="#4D7280" transform="translate(178,77)"/>
<path d="M0 0 C-0.1875 2.3125 -0.1875 2.3125 -1 5 C-5.03448276 8 -5.03448276 8 -8 8 C-8 6.68 -8 5.36 -8 4 C-8.33 3.34 -8.66 2.68 -9 2 C-5.86501708 0.14223235 -3.62528568 -0.20140476 0 0 Z " fill="#78AA58" transform="translate(158,117)"/>
<path d="M0 0 C2 2 2 2 2.375 5.875 C2.31541346 9.15225968 2.14649924 9.81687595 0 12.5 C-0.66 12.995 -1.32 13.49 -2 14 C-3.32 13.34 -4.64 12.68 -6 12 C-5.34 11.67 -4.68 11.34 -4 11 C-3.2986716 8.67684969 -2.63514826 6.34210921 -2 4 C-1.37530495 2.64649406 -0.7283669 1.30065517 0 0 Z " fill="#1C88BB" transform="translate(79,81)"/>
<path d="M0 0 C2.42130331 3.63195496 2.21022785 5.38349348 2.125 9.6875 C2.10695312 10.86699219 2.08890625 12.04648438 2.0703125 13.26171875 C2.03550781 14.61716797 2.03550781 14.61716797 2 16 C0.68 16.33 -0.64 16.66 -2 17 C-2.33 16.34 -2.66 15.68 -3 15 C-2.71125 14.154375 -2.4225 13.30875 -2.125 12.4375 C-0.77055143 8.29890714 -0.36484446 4.3205265 0 0 Z " fill="#118EC8" transform="translate(128,83)"/>
<path d="M0 0 C3 1 3 1 4 2 C5.32 1.34 6.64 0.68 8 0 C8.33 0.99 8.66 1.98 9 3 C7.5625 5.6875 7.5625 5.6875 6 8 C0.33846154 5.53846154 0.33846154 5.53846154 -1.375 2.8125 C-1.58125 2.214375 -1.7875 1.61625 -2 1 C-1.34 0.67 -0.68 0.34 0 0 Z " fill="#827365" transform="translate(192,61)"/>
<path d="M0 0 C1.32 0 2.64 0 4 0 C4.61875 1.2065625 4.61875 1.2065625 5.25 2.4375 C6.68811517 5.10475948 6.68811517 5.10475948 8.82421875 5.58984375 C12.38048883 6.06971014 15.57823804 6.28316073 19 5 C19 5.66 19 6.32 19 7 C19.99 7.33 20.98 7.66 22 8 C14.42861409 10.5237953 7.43957877 8.05229759 0 6 C0.99 5.34 1.98 4.68 3 4 C2.01 2.68 1.02 1.36 0 0 Z " fill="#595733" transform="translate(147,77)"/>
<path d="M0 0 C1.9375 0.375 1.9375 0.375 4 1 C5.32411006 3.64822012 5.01892401 5.48938194 4.87890625 8.4453125 C4.83056641 9.52167969 4.78222656 10.59804687 4.73242188 11.70703125 C4.67634766 12.83496094 4.62027344 13.96289062 4.5625 15.125 C4.51029297 16.26066406 4.45808594 17.39632812 4.40429688 18.56640625 C4.27435544 21.37786631 4.13938086 24.18899465 4 27 C3.67 27 3.34 27 3 27 C3 18.75 3 10.5 3 2 C1.68 2.33 0.36 2.66 -1 3 C-0.67 2.01 -0.34 1.02 0 0 Z " fill="#CDC049" transform="translate(58,118)"/>
<path d="M0 0 C0.33 0.99 0.66 1.98 1 3 C3.10584438 3.80563638 3.10584438 3.80563638 5.5625 4.1875 C6.38878906 4.34605469 7.21507812 4.50460938 8.06640625 4.66796875 C9.02353516 4.83232422 9.02353516 4.83232422 10 5 C8.68 6.32 7.36 7.64 6 9 C6.66 9 7.32 9 8 9 C8 9.66 8 10.32 8 11 C7.01 11 6.02 11 5 11 C5 9.02 5 7.04 5 5 C1.72226496 5.75150023 1.72226496 5.75150023 0 9 C-0.99 8.67 -1.98 8.34 -3 8 C-2.34 8 -1.68 8 -1 8 C-1.020625 7.05125 -1.04125 6.1025 -1.0625 5.125 C-1 2 -1 2 0 0 Z " fill="#8C5A30" transform="translate(185,92)"/>
<path d="M0 0 C0.66 0 1.32 0 2 0 C2 1.32 2 2.64 2 4 C2.61875 4.0825 3.2375 4.165 3.875 4.25 C6 5 6 5 7.25 6.6875 C8.1758912 9.54233119 8.135557 12.01774607 8 15 C7.67 15 7.34 15 7 15 C7 13.35 7 11.7 7 10 C6.1028125 9.8453125 6.1028125 9.8453125 5.1875 9.6875 C2.57631553 8.86684202 1.55681728 8.25738505 0 6 C-0.1875 2.8125 -0.1875 2.8125 0 0 Z " fill="#158AC0" transform="translate(9,82)"/>
<path d="M0 0 C0.99 0.495 0.99 0.495 2 1 C2.34342449 2.33076989 2.67619874 3.66431979 3 5 C3.66 5.66 4.32 6.32 5 7 C4.34 7 3.68 7 3 7 C3 7.66 3 8.32 3 9 C7.96911366 7.87302957 7.96911366 7.87302957 12 5 C12.33 5.99 12.66 6.98 13 8 C9.54987572 10.36579951 7.22131327 11.66652315 3 11 C1.1875 10 1.1875 10 0 8 C-0.24667073 5.28125957 -0.13481122 2.74116148 0 0 Z " fill="#9C8175" transform="translate(188,71)"/>
<path d="M0 0 C5.94 0.99 5.94 0.99 12 2 C12 2.99 12 3.98 12 5 C7.17639811 5.19294408 3.50353262 4.75747614 -1 3 C-0.67 2.01 -0.34 1.02 0 0 Z " fill="#0F1112" transform="translate(33,165)"/>
<path d="M0 0 C0 0.99 0 1.98 0 3 C-4.40914783 4.10228696 -8.48382401 4.07654536 -13 4 C-13.33 3.01 -13.66 2.02 -14 1 C-4.58997722 -0.14806378 -4.58997722 -0.14806378 0 0 Z " fill="#060606" transform="translate(196,162)"/>
<path d="M0 0 C0 0.66 0 1.32 0 2 C-4.29 2.99 -8.58 3.98 -13 5 C-13.33 4.01 -13.66 3.02 -14 2 C-12.04396149 1.47061343 -10.08507711 0.95173199 -8.125 0.4375 C-7.03445312 0.14746094 -5.94390625 -0.14257812 -4.8203125 -0.44140625 C-2 -1 -2 -1 0 0 Z " fill="#090A0C" transform="translate(110,158)"/>
<path d="M0 0 C1.98 0 3.96 0 6 0 C5.01 0.495 5.01 0.495 4 1 C4 1.66 4 2.32 4 3 C7.465 2.505 7.465 2.505 11 2 C9.64512781 3.94762877 8.44345397 4.87289536 6.16015625 5.52734375 C2.59318207 6.11851824 0.70768099 6.40691657 -2.5 4.5625 C-2.995 4.046875 -3.49 3.53125 -4 3 C-2.35 3 -0.7 3 1 3 C0.67 2.01 0.34 1.02 0 0 Z " fill="#D76A9C" transform="translate(168,143)"/>
<path d="M0 0 C0.99 0.33 1.98 0.66 3 1 C3 1.66 3 2.32 3 3 C2.01 3.33 1.02 3.66 0 4 C-0.495 4.845625 -0.99 5.69125 -1.5 6.5625 C-1.995 7.366875 -2.49 8.17125 -3 9 C-3.99 9 -4.98 9 -6 9 C-6.33 9.99 -6.66 10.98 -7 12 C-7.75 10.3125 -7.75 10.3125 -8 8 C-6.19549047 5.12615149 -4.98687077 3.35637 -1.75 2.1875 C-1.1725 2.125625 -0.595 2.06375 0 2 C0 1.34 0 0.68 0 0 Z " fill="#1EB6C8" transform="translate(31,105)"/>
<path d="M0 0 C0.33 0.66 0.66 1.32 1 2 C-0.14453125 4.27734375 -0.14453125 4.27734375 -1.8125 6.9375 C-2.35519531 7.81277344 -2.89789063 8.68804687 -3.45703125 9.58984375 C-4.61930639 11.40534695 -5.80424657 13.20636986 -7 15 C-7.24055468 17.05709596 -7.24055468 17.05709596 -7.125 19.1875 C-7.08375 20.445625 -7.0425 21.70375 -7 23 C-8.65 21.35 -10.3 19.7 -12 18 C-11.55269531 17.3709375 -11.10539063 16.741875 -10.64453125 16.09375 C-6.92163731 10.82295773 -3.36489028 5.5061841 0 0 Z " fill="#41B4DA" transform="translate(180,45)"/>
<path d="M0 0 C0 0.99 0 1.98 0 3 C-2.99480917 3.8723412 -5.63575911 4.10829766 -8.75 4.0625 C-9.54921875 4.05347656 -10.3484375 4.04445312 -11.171875 4.03515625 C-11.77515625 4.02355469 -12.3784375 4.01195312 -13 4 C-13 3.01 -13 2.02 -13 1 C-11.58366664 0.83052421 -10.16691467 0.66454493 -8.75 0.5 C-7.56664062 0.36078125 -7.56664062 0.36078125 -6.359375 0.21875 C-4 0 -4 0 0 0 Z " fill="#0F0F0F" transform="translate(67,166)"/>
<path d="M0 0 C5.21979128 -0.1799928 9.07262981 0.02905192 14 2 C14 2.66 14 3.32 14 4 C9.71 3.67 5.42 3.34 1 3 C0.67 2.01 0.34 1.02 0 0 Z " fill="#0A0B0D" transform="translate(139,156)"/>
<path d="M0 0 C3.63559661 3.43361902 6.36113346 6.7973607 9 11 C5 11 5 11 3.26171875 9.35546875 C2.48248047 8.28232422 2.48248047 8.28232422 1.6875 7.1875 C1.15511719 6.47980469 0.62273438 5.77210938 0.07421875 5.04296875 C-0.28027344 4.36878906 -0.63476562 3.69460937 -1 3 C-0.67 2.01 -0.34 1.02 0 0 Z " fill="#131919" transform="translate(17,151)"/>
<path d="M0 0 C0.99 0 1.98 0 3 0 C3.19294408 4.82360189 2.75747614 8.49646738 1 13 C0.01 13 -0.98 13 -2 13 C-1.34 8.71 -0.68 4.42 0 0 Z " fill="#171718" transform="translate(221,135)"/>
<path d="M0 0 C0 0.99 0 1.98 0 3 C0.66 3 1.32 3 2 3 C2 3.99 2 4.98 2 6 C-0.31 6 -2.62 6 -5 6 C-5 4.68 -5 3.36 -5 2 C-5.99 1.34 -6.98 0.68 -8 0 C-4.71303767 -0.79953138 -3.28976808 -1.09658936 0 0 Z " fill="#D7B3A4" transform="translate(197,68)"/>
<path d="M0 0 C-0.33 0.66 -0.66 1.32 -1 2 C-5.44500224 3.33350067 -9.3318831 4.29175731 -14 4 C-13.67 3.01 -13.34 2.02 -13 1 C-11.07421875 0.234375 -11.07421875 0.234375 -8.6875 -0.25 C-7.90761719 -0.42015625 -7.12773438 -0.5903125 -6.32421875 -0.765625 C-3.92348133 -1.00771617 -2.28190412 -0.7310448 0 0 Z " fill="#0C0C0C" transform="translate(89,163)"/>
<path d="M0 0 C0.90105469 0.00902344 1.80210938 0.01804688 2.73046875 0.02734375 C3.41753906 0.03894531 4.10460937 0.05054688 4.8125 0.0625 C4.8125 1.0525 4.8125 2.0425 4.8125 3.0625 C-1.6225 3.5575 -1.6225 3.5575 -8.1875 4.0625 C-8.1875 3.0725 -8.1875 2.0825 -8.1875 1.0625 C-5.17259443 0.05753148 -3.14568308 -0.04085303 0 0 Z " fill="#0F1317" transform="translate(126.1875,154.9375)"/>
<path d="M0 0 C0.66 0.33 1.32 0.66 2 1 C0.52307692 6.66153846 0.52307692 6.66153846 -2.125 8.375 C-2.74375 8.58125 -3.3625 8.7875 -4 9 C-4 9.99 -4 10.98 -4 12 C-4.66 12 -5.32 12 -6 12 C-6 11.01 -6 10.02 -6 9 C-6.66 8.67 -7.32 8.34 -8 8 C-5.33333333 5.33333333 -2.66666667 2.66666667 0 0 Z " fill="#F263A7" transform="translate(168,120)"/>
<path d="M0 0 C1.88671875 0.26171875 1.88671875 0.26171875 4 1 C5.08203125 2.70703125 5.08203125 2.70703125 5.8125 4.8125 C6.19341797 5.84310547 6.19341797 5.84310547 6.58203125 6.89453125 C7.05333812 9.26868457 6.75212833 10.72314894 6 13 C3.19438607 11.59719304 2.99319493 9.9490995 1.875 7.0625 C1.52179688 6.16660156 1.16859375 5.27070312 0.8046875 4.34765625 C0 2 0 2 0 0 Z " fill="#121314" transform="translate(216,114)"/>
<path d="M0 0 C0 3.44360632 -0.79591532 4.74795392 -2.5 7.6875 C-2.9640625 8.49574219 -3.428125 9.30398437 -3.90625 10.13671875 C-4.44765625 11.05904297 -4.44765625 11.05904297 -5 12 C-5.99 11.67 -6.98 11.34 -8 11 C-5.66153846 3.49230769 -5.66153846 3.49230769 -2.3125 1 C-1.1678125 0.505 -1.1678125 0.505 0 0 Z " fill="#F4F1D8" transform="translate(177,85)"/>
<path d="M0 0 C5.94 1.485 5.94 1.485 12 3 C11.67 3.99 11.34 4.98 11 6 C7.37 5.34 3.74 4.68 0 4 C0 2.68 0 1.36 0 0 Z " fill="#060607" transform="translate(162,159)"/>
<path d="M0 0 C0.33 0 0.66 0 1 0 C1.04898438 0.69867188 1.09796875 1.39734375 1.1484375 2.1171875 C1.22320312 3.02726562 1.29796875 3.93734375 1.375 4.875 C1.44460937 5.77992187 1.51421875 6.68484375 1.5859375 7.6171875 C1.79568132 10.17941903 1.79568132 10.17941903 4 12 C4.66 11.34 5.32 10.68 6 10 C6 11.32 6 12.64 6 14 C3.69 13.67 1.38 13.34 -1 13 C-1 12.34 -1 11.68 -1 11 C-2.98 11 -4.96 11 -7 11 C-7.33 9.68 -7.66 8.36 -8 7 C-7.34 7.66 -6.68 8.32 -6 9 C-3.41645782 9.16687448 -3.41645782 9.16687448 -1 9 C-0.67 6.03 -0.34 3.06 0 0 Z " fill="#2388BC" transform="translate(105,84)"/>
<path d="M0 0 C3.25295114 -0.22179212 5.42797793 -0.28601103 8.375 1.1875 C10 3 10 3 10.25 5.6875 C10.1675 6.450625 10.085 7.21375 10 8 C9.01 8.495 9.01 8.495 8 9 C7.34 8.34 6.68 7.68 6 7 C6.33 6.01 6.66 5.02 7 4 C6.030625 3.71125 5.06125 3.4225 4.0625 3.125 C1 2 1 2 0 0 Z " fill="#F168A4" transform="translate(172,119)"/>
<path d="M0 0 C0.99 0.33 1.98 0.66 3 1 C-2.37096774 6.66935484 -2.37096774 6.66935484 -6 8 C-6.99 8 -7.98 8 -9 8 C-9 7.01 -9 6.02 -9 5 C-8.43410156 4.72285156 -7.86820313 4.44570312 -7.28515625 4.16015625 C-6.55167969 3.79792969 -5.81820312 3.43570313 -5.0625 3.0625 C-3.96615234 2.52302734 -3.96615234 2.52302734 -2.84765625 1.97265625 C-1.03750973 1.13628173 -1.03750973 1.13628173 0 0 Z " fill="#0A0A0A" transform="translate(213,154)"/>
<path d="M0 0 C0.5775 0.639375 1.155 1.27875 1.75 1.9375 C3.98062401 3.98223868 5.07436391 4.58205199 8 5 C7.6875 6.9375 7.6875 6.9375 7 9 C6.01 9.33 5.02 9.66 4 10 C4 9.34 4 8.68 4 8 C2.68 7.34 1.36 6.68 0 6 C0 4.02 0 2.04 0 0 Z " fill="#806F5C" transform="translate(3,126)"/>
<path d="M0 0 C2.475 0.495 2.475 0.495 5 1 C4.38461538 7.52307692 4.38461538 7.52307692 2.4375 9.9375 C1.963125 10.288125 1.48875 10.63875 1 11 C-0.28317892 7.15046324 -0.06643637 4.05261865 0 0 Z " fill="#ECD3C3" transform="translate(164,71)"/>
<path d="M0 0 C1.32 0.66 2.64 1.32 4 2 C4 3.65 4 5.3 4 7 C2.68 7.33 1.36 7.66 0 8 C-0.99 6.68 -1.98 5.36 -3 4 C-2.34 3.67 -1.68 3.34 -1 3 C-0.67 2.01 -0.34 1.02 0 0 Z " fill="#E06F50" transform="translate(205,118)"/>
<path d="M0 0 C-0.55728913 3.34373475 -1.35173889 6.03312999 -3 9 C-5 8 -5 8 -6.125 4.9375 C-6.41375 3.968125 -6.7025 2.99875 -7 2 C-2.25 0 -2.25 0 0 0 Z " fill="#A7C36F" transform="translate(174,83)"/>
<path d="M0 0 C0.33 0 0.66 0 1 0 C1.04898438 0.92683594 1.09796875 1.85367188 1.1484375 2.80859375 C1.22320312 4.00613281 1.29796875 5.20367187 1.375 6.4375 C1.44460937 7.63246094 1.51421875 8.82742187 1.5859375 10.05859375 C1.72257813 11.02925781 1.85921875 11.99992188 2 13 C2.66 13.33 3.32 13.66 4 14 C4 14.66 4 15.32 4 16 C2.68 16 1.36 16 0 16 C-1.29758261 13.40483479 -1.13269102 11.45816973 -1.125 8.5625 C-1.12757813 7.59441406 -1.13015625 6.62632812 -1.1328125 5.62890625 C-1 3 -1 3 0 0 Z " fill="#6FA04F" transform="translate(133,133)"/>
<path d="M0 0 C2.4375 0.8125 2.4375 0.8125 5 2 C5.33 2.99 5.66 3.98 6 5 C4.01775064 8.44285416 2.71162994 9.14418503 -1 11 C-0.01 8.03 0.98 5.06 2 2 C1.34 2 0.68 2 0 2 C0 1.34 0 0.68 0 0 Z " fill="#F1D1C1" transform="translate(197,69)"/>
<path d="M0 0 C2 2 2 2 2.125 5.125 C2.08375 6.07375 2.0425 7.0225 2 8 C0.68 8 -0.64 8 -2 8 C-2.66 6.02 -3.32 4.04 -4 2 C-2.68 1.34 -1.36 0.68 0 0 Z " fill="#0DAAE5" transform="translate(177,66)"/>
<path d="M0 0 C2.6875 0.875 2.6875 0.875 5 2 C5 1.34 5 0.68 5 0 C6.32 0 7.64 0 9 0 C9.33 0.99 9.66 1.98 10 3 C5.9472484 3.98248524 2.16138263 4.08159574 -2 4 C-2.33 3.34 -2.66 2.68 -3 2 C-2.01 1.34 -1.02 0.68 0 0 Z " fill="#9DC957" transform="translate(149,94)"/>
<path d="M0 0 C-1.75 4.875 -1.75 4.875 -4 6 C-5.54023996 6.06950541 -7.08334988 6.08452357 -8.625 6.0625 C-9.85089844 6.04896484 -9.85089844 6.04896484 -11.1015625 6.03515625 C-12.04128906 6.01775391 -12.04128906 6.01775391 -13 6 C-13 5.67 -13 5.34 -13 5 C-11.02 4.67 -9.04 4.34 -7 4 C-7.99 3.34 -8.98 2.68 -10 2 C-8.7090864 1.66376204 -7.41723903 1.33110751 -6.125 1 C-5.40570312 0.814375 -4.68640625 0.62875 -3.9453125 0.4375 C-2 0 -2 0 0 0 Z " fill="#EFE969" transform="translate(20,135)"/>
<path d="M0 0 C0.33 0.66 0.66 1.32 1 2 C0.67 2.99 0.34 3.98 0 5 C0.66 5 1.32 5 2 5 C1.67 6.65 1.34 8.3 1 10 C0.01 10.33 -0.98 10.66 -2 11 C-2.96891192 5.62694301 -2.96891192 5.62694301 -3 3 C-1.5625 1 -1.5625 1 0 0 Z " fill="#39979F" transform="translate(21,117)"/>
<path d="M0 0 C0.28875 0.598125 0.5775 1.19625 0.875 1.8125 C2.04742026 4.19327792 2.04742026 4.19327792 4 7 C3.67 7.66 3.34 8.32 3 9 C0.03 9 -2.94 9 -6 9 C-5.67 8.01 -5.34 7.02 -5 6 C-3.35 5.67 -1.7 5.34 0 5 C0 3.35 0 1.7 0 0 Z " fill="#D6DFDE" transform="translate(186,77)"/>
<path d="M0 0 C0.99 0 1.98 0 3 0 C3 0.66 3 1.32 3 2 C3.99 1.67 4.98 1.34 6 1 C6 2.65 6 4.3 6 6 C3.6875 6.625 3.6875 6.625 1 7 C0.01 6.34 -0.98 5.68 -2 5 C-1.01 5 -0.02 5 1 5 C1 4.34 1 3.68 1 3 C0.34 3 -0.32 3 -1 3 C-0.67 2.01 -0.34 1.02 0 0 Z " fill="#EF9F5B" transform="translate(192,98)"/>
<path d="M0 0 C0.66 0 1.32 0 2 0 C2.33 1.32 2.66 2.64 3 4 C5.97 4.495 5.97 4.495 9 5 C9 5.99 9 6.98 9 8 C3.25 8.125 3.25 8.125 1 7 C0.59270772 4.67843403 0.25561323 2.3431213 0 0 Z " fill="#0A90CC" transform="translate(95,90)"/>
<path d="M0 0 C4.62 0 9.24 0 14 0 C14 0.99 14 1.98 14 3 C7.07 2.505 7.07 2.505 0 2 C0 1.34 0 0.68 0 0 Z " fill="#CFE9BA" transform="translate(147,98)"/>
<path d="M0 0 C1.1875 1.625 1.1875 1.625 2 4 C0.71894145 7.76781928 -0.09948074 9.53926921 -3.6875 11.375 C-4.450625 11.58125 -5.21375 11.7875 -6 12 C-5.6875 10.0625 -5.6875 10.0625 -5 8 C-4.01 7.67 -3.02 7.34 -2 7 C-2 5.68 -2 4.36 -2 3 C-2 2.34 -2 1.68 -2 1 C-1.34 0.67 -0.68 0.34 0 0 Z " fill="#839EA5" transform="translate(209,71)"/>
<path d="M0 0 C2.14285714 7.42857143 2.14285714 7.42857143 3 11 C-0.87447876 7.88357143 -3.72596687 5.54806626 -6 1 C-3.92446352 0.4465236 -2.15634036 0 0 0 Z " fill="#D9C6C0" transform="translate(188,73)"/>
<path d="M0 0 C2.9375 0.75 2.9375 0.75 6 2 C7 3.8125 7 3.8125 7 6 C6.0625 8.75 6.0625 8.75 5 11 C4.67 11 4.34 11 4 11 C3.71125 9.9275 3.4225 8.855 3.125 7.75 C2.27179891 4.90599636 1.4363497 2.56491017 0 0 Z " fill="#645C55" transform="translate(165,66)"/>
<path d="M0 0 C0.66 0 1.32 0 2 0 C2.83796731 4.65537393 3.0161692 8.37078475 2 13 C0.02 13 -1.96 13 -4 13 C-3.34 12.525625 -2.68 12.05125 -2 11.5625 C0.89658976 7.85124437 0.34969446 4.54602793 0 0 Z " fill="#1EBACB" transform="translate(47,138)"/>
<path d="M0 0 C0.99 0.33 1.98 0.66 3 1 C3 2.32 3 3.64 3 5 C4.32 5 5.64 5 7 5 C7 5.66 7 6.32 7 7 C4.69 6.67 2.38 6.34 0 6 C-0.38218767 4.34385343 -0.71395102 2.67542976 -1 1 C-0.67 0.67 -0.34 0.34 0 0 Z " fill="#158AC1" transform="translate(7,92)"/>
<path d="M0 0 C0.99 0.33 1.98 0.66 3 1 C3.33 3.97 3.66 6.94 4 10 C2 8.9375 2 8.9375 0 7 C-0.25 3.3125 -0.25 3.3125 0 0 Z " fill="#0A91CC" transform="translate(106,87)"/>
<path d="M0 0 C3.3 0 6.6 0 10 0 C9.34 1.32 8.68 2.64 8 4 C4.28400809 4.20086443 3.22791555 4.1519437 0 2 C0 1.34 0 0.68 0 0 Z " fill="#766755" transform="translate(7,142)"/>
<path d="M0 0 C2.0625 0.4375 2.0625 0.4375 4 1 C3.62403791 3.78211944 3.32681541 5.5879284 1.5625 7.8125 C0 9 0 9 -2 9 C-2 8.34 -2 7.68 -2 7 C-1.01 6.34 -0.02 5.68 1 5 C1.33 4.01 1.66 3.02 2 2 C-0.475 3.485 -0.475 3.485 -3 5 C-1.125 1.125 -1.125 1.125 0 0 Z " fill="#2FA2CA" transform="translate(120,140)"/>
<path d="M0 0 C2.0625 0.4375 2.0625 0.4375 4 1 C4.33 2.65 4.66 4.3 5 6 C4.01 6 3.02 6 2 6 C2 5.67 2 5.34 2 5 C1.01 5 0.02 5 -1 5 C-1 1 -1 1 0 0 Z " fill="#0D1015" transform="translate(10,109)"/>
<path d="M0 0 C1.41377341 2.63904371 2.37240135 5.07120629 3 8 C0.69 8 -1.62 8 -4 8 C-3.67 6.68 -3.34 5.36 -3 4 C-3 4.66 -3 5.32 -3 6 C-2.34 6 -1.68 6 -1 6 C-1.020625 5.195625 -1.04125 4.39125 -1.0625 3.5625 C-1 1 -1 1 0 0 Z " fill="#308AAB" transform="translate(184,75)"/>
<path d="M0 0 C0.99 0.33 1.98 0.66 3 1 C3.103125 1.61875 3.20625 2.2375 3.3125 2.875 C3.85776352 5.37464525 3.85776352 5.37464525 7.0625 6.75 C8.5165625 7.36875 8.5165625 7.36875 10 8 C10 8.33 10 8.66 10 9 C4.5819398 9.36120401 4.5819398 9.36120401 2.1875 7.875 C0.57771731 5.33323785 0.32890991 2.9601892 0 0 Z " fill="#EEDDD2" transform="translate(150,74)"/>
<path d="M0 0 C1.98 0.66 3.96 1.32 6 2 C6 3.32 6 4.64 6 6 C3.03 5.01 0.06 4.02 -3 3 C-2.01 2.01 -1.02 1.02 0 0 Z " fill="#2D2F32" transform="translate(159,60)"/>
<path d="M0 0 C1.65 0 3.3 0 5 0 C3.55527654 3.80881639 1.67396929 5.29742886 -2 7 C-2.99 6.67 -3.98 6.34 -5 6 C-4.360625 5.7525 -3.72125 5.505 -3.0625 5.25 C-0.81258459 4.18437567 -0.81258459 4.18437567 -0.25 1.875 C-0.1675 1.25625 -0.085 0.6375 0 0 Z " fill="#24ABB6" transform="translate(44,151)"/>
<path d="M0 0 C0.99 0.33 1.98 0.66 3 1 C3.73046875 3.06640625 3.73046875 3.06640625 4.1875 5.5625 C4.34605469 6.38878906 4.50460938 7.21507812 4.66796875 8.06640625 C4.77753906 8.70449219 4.88710937 9.34257812 5 10 C3.68 10.33 2.36 10.66 1 11 C0.34 10.01 -0.32 9.02 -1 8 C0.32 8.33 1.64 8.66 3 9 C2.01 6.03 1.02 3.06 0 0 Z " fill="#D16892" transform="translate(180,138)"/>
<path d="M0 0 C3.96 0 7.92 0 12 0 C11.67 1.32 11.34 2.64 11 4 C11 3.01 11 2.02 11 1 C9.35 1.66 7.7 2.32 6 3 C6 3.66 6 4.32 6 5 C5.34 5 4.68 5 4 5 C3.67 5.66 3.34 6.32 3 7 C3 5.35 3 3.7 3 2 C2.01 1.67 1.02 1.34 0 1 C0 0.67 0 0.34 0 0 Z " fill="#375320" transform="translate(149,88)"/>
<path d="M0 0 C0.5534764 2.07553648 1 3.84365964 1 6 C1.33 6.99 1.66 7.98 2 9 C0.35 9 -1.3 9 -3 9 C-4.125 5.25 -4.125 5.25 -3 3 C-2.01 3 -1.02 3 0 3 C0 2.01 0 1.02 0 0 Z " fill="#A6A78E" transform="translate(149,73)"/>
<path d="M0 0 C3 1 3 1 4 2 C6.32817964 2.36760731 8.6618385 2.70241581 11 3 C11 3.33 11 3.66 11 4 C7.37 4.66 3.74 5.32 0 6 C-0.33 4.35 -0.66 2.7 -1 1 C-0.67 0.67 -0.34 0.34 0 0 Z " fill="#0FABE2" transform="translate(185,56)"/>
<path d="M0 0 C0.33 0.66 0.66 1.32 1 2 C0.0625 4.625 0.0625 4.625 -1 7 C-3.97 6.01 -6.94 5.02 -10 4 C-9.67 3.34 -9.34 2.68 -9 2 C-8.67 2.33 -8.34 2.66 -8 3 C-5.58416247 3.33374277 -5.58416247 3.33374277 -3 3 C-1.18523997 1.60414215 -1.18523997 1.60414215 0 0 Z " fill="#353428" transform="translate(18,142)"/>
<path d="M0 0 C0.33 0 0.66 0 1 0 C1 2.97 1 5.94 1 9 C-0.32 9 -1.64 9 -3 9 C-3.25873987 5.89512156 -3.23307327 4.37494396 -1.5625 1.6875 C-1.046875 1.130625 -0.53125 0.57375 0 0 Z " fill="#4F6F6C" transform="translate(20,127)"/>
<path d="M0 0 C1.98 0 3.96 0 6 0 C6.33 1.32 6.66 2.64 7 4 C4.69 4.33 2.38 4.66 0 5 C0 3.35 0 1.7 0 0 Z " fill="#1AAEE4" transform="translate(112,117)"/>
<path d="M0 0 C2.25 0.0625 2.25 0.0625 5 1 C6.67849824 3.2308475 7.75999263 5.47405906 9 8 C8.34 8 7.68 8 7 8 C6.34 7.01 5.68 6.02 5 5 C3.03247172 3.93753473 1.03412421 2.92862192 -1 2 C-0.67 1.34 -0.34 0.68 0 0 Z " fill="#C4E3E7" transform="translate(165,63)"/>
<path d="M0 0 C0.33 0 0.66 0 1 0 C1.49873087 4.07296876 1.88737164 7.56775103 -0.3359375 11.15625 C-1.82463976 12.86161784 -3.33917726 14.46275038 -5 16 C-5 13 -5 13 -3.0625 10.25 C-0.8044797 6.6919074 -0.33253044 4.15663055 0 0 Z " fill="#2C9EA8" transform="translate(44,110)"/>
<path d="M0 0 C2.0625 0.4375 2.0625 0.4375 4 1 C3.67 2.65 3.34 4.3 3 6 C0.03 5.505 0.03 5.505 -3 5 C-1.125 1.125 -1.125 1.125 0 0 Z " fill="#0B2227" transform="translate(18,112)"/>
<path d="M0 0 C2.64 0 5.28 0 8 0 C8 0.99 8 1.98 8 3 C5.69 3.33 3.38 3.66 1 4 C0.67 2.68 0.34 1.36 0 0 Z " fill="#B19E94" transform="translate(156,80)"/>
<path d="M0 0 C0.66 0 1.32 0 2 0 C2 0.99 2 1.98 2 3 C2.66 3 3.32 3 4 3 C3.67 4.65 3.34 6.3 3 8 C2.01 7.67 1.02 7.34 0 7 C-1.17755913 4.05610218 -1.03348696 3.10046087 0 0 Z " fill="#05ACEB" transform="translate(210,60)"/>
<path d="M0 0 C0.33 0 0.66 0 1 0 C1.125 3.375 1.125 3.375 1 7 C0.34 7.66 -0.32 8.32 -1 9 C-3.125 8.625 -3.125 8.625 -5 8 C-5 5.69 -5 3.38 -5 1 C-3 4.75 -3 4.75 -3 7 C-2.34 6.67 -1.68 6.34 -1 6 C-0.34227572 2.97065509 -0.34227572 2.97065509 0 0 Z " fill="#BB3136" transform="translate(77,143)"/>
<path d="M0 0 C1.65 1.65 3.3 3.3 5 5 C3.35 5.66 1.7 6.32 0 7 C-0.66 5.68 -1.32 4.36 -2 3 C-1.34 2.01 -0.68 1.02 0 0 Z " fill="#A1AD8F" transform="translate(165,94)"/>
<path d="M0 0 C2.02045442 0.60183749 4.02111039 1.27306096 6 2 C6.33 2.66 6.66 3.32 7 4 C0.25 5 0.25 5 -2 5 C-2.99 5.495 -2.99 5.495 -4 6 C-2.84826645 3.53199953 -1.95216435 1.95216435 0 0 Z " fill="#1D87B9" transform="translate(28,77)"/>
<path d="M0 0 C1.32 1.65 2.64 3.3 4 5 C1.66785852 6.20628008 -0.49642139 7.1654738 -3 8 C-3.66 7.01 -4.32 6.02 -5 5 C-4.01 5 -3.02 5 -2 5 C-1.34 3.35 -0.68 1.7 0 0 Z " fill="#03ABE7" transform="translate(208,53)"/>
<path d="M0 0 C1.65 0.33 3.3 0.66 5 1 C4.67 1.66 4.34 2.32 4 3 C3.01 3 2.02 3 1 3 C1.33 4.65 1.66 6.3 2 8 C0.4375 6.8125 0.4375 6.8125 -1 5 C-0.6875 2.3125 -0.6875 2.3125 0 0 Z " fill="#DD6E54" transform="translate(187,141)"/>
<path d="M0 0 C0 1.98 0 3.96 0 6 C-0.99 6.495 -0.99 6.495 -2 7 C-2.33 5.68 -2.66 4.36 -3 3 C-4.32 4.32 -5.64 5.64 -7 7 C-7.66 6.67 -8.32 6.34 -9 6 C-7.8803014 4.99406757 -6.7540588 3.9954151 -5.625 3 C-4.68527344 2.1646875 -4.68527344 2.1646875 -3.7265625 1.3125 C-2 0 -2 0 0 0 Z " fill="#2CA4D0" transform="translate(112,117)"/>
<path d="M0 0 C1.5625 1.25 1.5625 1.25 3 3 C2.6875 5.1875 2.6875 5.1875 2 7 C2 6.01 2 5.02 2 4 C0.02 4.33 -1.96 4.66 -4 5 C-3.6875 3.0625 -3.6875 3.0625 -3 1 C-2.01 0.67 -1.02 0.34 0 0 Z " fill="#3F4443" transform="translate(208,66)"/>
<path d="M0 0 C0.99 0.33 1.98 0.66 3 1 C3 1.66 3 2.32 3 3 C0.40759181 4.8597711 -2.14410847 6.57205423 -5 8 C-3.8141763 4.62496331 -2.72426311 2.35277269 0 0 Z " fill="#3F3D38" transform="translate(155,62)"/>
<path d="M0 0 C2.1202151 3.18032265 2.2495865 3.54567399 1.75 7.0625 C1.66234375 7.75472656 1.5746875 8.44695312 1.484375 9.16015625 C1 11 1 11 -1 13 C-0.67 8.71 -0.34 4.42 0 0 Z " fill="#31AAB0" transform="translate(50,138)"/>
<path d="M0 0 C0.33 0 0.66 0 1 0 C1.66 2.64 2.32 5.28 3 8 C2.34 8 1.68 8 1 8 C0.67 7.34 0.34 6.68 0 6 C-1.65 6 -3.3 6 -5 6 C-5 5.01 -5 4.02 -5 3 C-3.35 3 -1.7 3 0 3 C0 2.01 0 1.02 0 0 Z " fill="#DC6C9D" transform="translate(165,135)"/>
<path d="M0 0 C0.33 0.99 0.66 1.98 1 3 C0 4 0 4 -1.84765625 4.09765625 C-3.8984375 4.06510417 -5.94921875 4.03255208 -8 4 C-8 3.34 -8 2.68 -8 2 C-5.36 1.34 -2.72 0.68 0 0 Z " fill="#088FCF" transform="translate(76,93)"/>
<path d="M0 0 C1.98 0.495 1.98 0.495 4 1 C3.01 1 2.02 1 1 1 C1 1.99 1 2.98 1 4 C1.66 4.33 2.32 4.66 3 5 C3 6.65 3 8.3 3 10 C1.68 10.33 0.36 10.66 -1 11 C-0.835 10.113125 -0.67 9.22625 -0.5 8.3125 C-0.07004243 5.46403108 0.08441035 2.86995198 0 0 Z " fill="#373121" transform="translate(161,92)"/>
<path d="M0 0 C1.32 0.66 2.64 1.32 4 2 C3.01 2.495 3.01 2.495 2 3 C1.67 3.99 1.34 4.98 1 6 C0.67 5.34 0.34 4.68 0 4 C-1.65 4.33 -3.3 4.66 -5 5 C-3.35 3.35 -1.7 1.7 0 0 Z " fill="#3B4526" transform="translate(174,79)"/>
<path d="M0 0 C0.66 0.33 1.32 0.66 2 1 C1.01 2.98 0.02 4.96 -1 7 C-1.99 7 -2.98 7 -4 7 C-3.6875 4.625 -3.6875 4.625 -3 2 C-2.01 1.34 -1.02 0.68 0 0 Z " fill="#ECEC58" transform="translate(9,120)"/>
<path d="M0 0 C1.5 1.1875 1.5 1.1875 3 3 C3.1875 5.6875 3.1875 5.6875 3 8 C1.68 8.33 0.36 8.66 -1 9 C-1.33 8.01 -1.66 7.02 -2 6 C-0.68 6.33 0.64 6.66 2 7 C1.34 4.69 0.68 2.38 0 0 Z " fill="#779F5E" transform="translate(154,139)"/>
<path d="M0 0 C2 2 2 2 2.25 5.5 C2 9 2 9 0 11 C-0.84098656 6.98195309 -1.05404945 3.98196457 0 0 Z " fill="#E0724E" transform="translate(204,137)"/>
<path d="M0 0 C2.475 0.495 2.475 0.495 5 1 C5.33 2.32 5.66 3.64 6 5 C5.34 5 4.68 5 4 5 C4 4.34 4 3.68 4 3 C3.01 3 2.02 3 1 3 C1 4.65 1 6.3 1 8 C0.67 8 0.34 8 0 8 C0 5.36 0 2.72 0 0 Z " fill="#746656" transform="translate(195,89)"/>
<path d="M0 0 C-0.99 0.495 -0.99 0.495 -2 1 C-1.67 1.99 -1.34 2.98 -1 4 C-3.92879371 3.37240135 -6.36095629 2.41377341 -9 1 C-6.04335481 -0.4783226 -3.25770263 -0.06032783 0 0 Z " fill="#1988B9" transform="translate(37,85)"/>
<path d="M0 0 C1.98 0.99 1.98 0.99 4 2 C4 2.66 4 3.32 4 4 C4.99 4.33 5.98 4.66 7 5 C6.01 5 5.02 5 4 5 C3.67 5.66 3.34 6.32 3 7 C2.01 7 1.02 7 0 7 C0.185625 6.21625 0.37125 5.4325 0.5625 4.625 C1.25962266 2.02910225 1.25962266 2.02910225 0 0 Z " fill="#2D454C" transform="translate(200,59)"/>
<path d="M0 0 C3.3 0 6.6 0 10 0 C9.67 0.66 9.34 1.32 9 2 C6.93359375 2.4140625 6.93359375 2.4140625 4.4375 2.625 C3.61121094 2.69976562 2.78492187 2.77453125 1.93359375 2.8515625 C0.97646484 2.92503906 0.97646484 2.92503906 0 3 C0 2.01 0 1.02 0 0 Z " fill="#33A5D0" transform="translate(116,132)"/>
<path d="M0 0 C2.97 0.495 2.97 0.495 6 1 C4.68 2.32 3.36 3.64 2 5 C2.66 5 3.32 5 4 5 C4 5.66 4 6.32 4 7 C3.01 7 2.02 7 1 7 C0.67 4.69 0.34 2.38 0 0 Z " fill="#78522A" transform="translate(189,96)"/>
<path d="M0 0 C-0.33 0.99 -0.66 1.98 -1 3 C-4.5625 4.1875 -4.5625 4.1875 -8 5 C-5.96115496 0.48541456 -5.19128917 0 0 0 Z " fill="#C5DBB1" transform="translate(153,63)"/>
<path d="M0 0 C2.475 0.495 2.475 0.495 5 1 C5 4 5 4 4 6 C2.68 5.67 1.36 5.34 0 5 C0 3.35 0 1.7 0 0 Z " fill="#7FBED5" transform="translate(197,57)"/>
<path d="M0 0 C1.32 0.66 2.64 1.32 4 2 C4 3.32 4 4.64 4 6 C3.01 6 2.02 6 1 6 C0.34 4.35 -0.32 2.7 -1 1 C-0.67 0.67 -0.34 0.34 0 0 Z " fill="#74B649" transform="translate(146,131)"/>
<path d="M0 0 C0.66 0.33 1.32 0.66 2 1 C1.67 2.32 1.34 3.64 1 5 C-0.65 5.33 -2.3 5.66 -4 6 C-2.84826645 3.53199953 -1.95216435 1.95216435 0 0 Z " fill="#21B3E9" transform="translate(109,119)"/>
<path d="M0 0 C2.31 0 4.62 0 7 0 C6.67 0.99 6.34 1.98 6 3 C3.03 2.505 3.03 2.505 0 2 C0 1.34 0 0.68 0 0 Z " fill="#1CAABE" transform="translate(32,104)"/>
<path d="M0 0 C0.66 0.33 1.32 0.66 2 1 C1.34 2.98 0.68 4.96 0 7 C-0.99 6.67 -1.98 6.34 -3 6 C-1.125 1.125 -1.125 1.125 0 0 Z " fill="#F7F4E8" transform="translate(172,90)"/>
<path d="M0 0 C0 0.66 0 1.32 0 2 C0.99 2.33 1.98 2.66 3 3 C-0.47325181 4.1577506 -3.36067448 4.06866652 -7 4 C-7 3.34 -7 2.68 -7 2 C-2.25 0 -2.25 0 0 0 Z " fill="#2F5953" transform="translate(166,82)"/>
<path d="M0 0 C1.32 1.32 2.64 2.64 4 4 C3.34 5.32 2.68 6.64 2 8 C1.34 8 0.68 8 0 8 C0 5.36 0 2.72 0 0 Z " fill="#A1C36E" transform="translate(171,74)"/>
<path d="M0 0 C0 1.98 0 3.96 0 6 C-1.32 5.67 -2.64 5.34 -4 5 C-3.625 3.0625 -3.625 3.0625 -3 1 C-1 0 -1 0 0 0 Z " fill="#FBF214" transform="translate(193,89)"/>
<path d="M0 0 C3.875 1.75 3.875 1.75 5 4 C5.039992 5.99960012 5.04346799 8.00047242 5 10 C4.67 10 4.34 10 4 10 C4 8.35 4 6.7 4 5 C3.34 5 2.68 5 2 5 C1.34 3.35 0.68 1.7 0 0 Z " fill="#0892D2" transform="translate(12,87)"/>
<path d="M0 0 C1.32 0 2.64 0 4 0 C3.67 1.65 3.34 3.3 3 5 C2.34 5 1.68 5 1 5 C0.67 3.35 0.34 1.7 0 0 Z " fill="#0D8DC8" transform="translate(106,79)"/>
<path d="M0 0 C1.875 0.25 1.875 0.25 4 1 C5.25 3.0625 5.25 3.0625 6 5 C4.35 4.67 2.7 4.34 1 4 C0.67 2.68 0.34 1.36 0 0 Z " fill="#5F5042" transform="translate(188,63)"/>
<path d="M0 0 C1.98 0 3.96 0 6 0 C5.67 0.99 5.34 1.98 5 3 C3.0625 3.8125 3.0625 3.8125 1 4 C0.34 3.34 -0.32 2.68 -1 2 C-0.67 1.34 -0.34 0.68 0 0 Z " fill="#6F6A5F" transform="translate(202,64)"/>
<path d="M0 0 C0.99 0 1.98 0 3 0 C3.33 1.32 3.66 2.64 4 4 C3.01 4 2.02 4 1 4 C0.67 2.68 0.34 1.36 0 0 Z " fill="#090909" transform="translate(209,103)"/>
</svg>
